<svg width="18" height="16" viewBox="0 0 18 16" fill="none" xmlns="http://www.w3.org/2000/svg">
<path d="M15.7307 2.39307C14.9025 1.49475 13.766 1 12.5304 1C11.6068 1 10.761 1.29199 10.0164 1.8678C9.64062 2.15845 9.30017 2.51404 9 2.92908C8.69995 2.51416 8.35938 2.15845 7.98352 1.8678C7.23901 1.29199 6.39319 1 5.4696 1C4.23401 1 3.09741 1.49475 2.26917 2.39307C1.45081 3.28088 1 4.49377 1 5.80847C1 7.16162 1.50427 8.40027 2.58691 9.70667C3.55542 10.8752 4.94739 12.0615 6.55933 13.4352C7.10974 13.9043 7.73364 14.436 8.38147 15.0024C8.55261 15.1523 8.77222 15.2349 9 15.2349C9.22766 15.2349 9.44739 15.1523 9.61829 15.0027C10.2661 14.4362 10.8904 13.9042 11.441 13.4348C13.0527 12.0614 14.4447 10.8752 15.4132 9.70654C16.4958 8.40027 17 7.16162 17 5.80835C17 4.49377 16.5492 3.28088 15.7307 2.39307Z" stroke="#ED165F"/>
</svg>
