<svg width="16" height="16" viewBox="0 0 16 16" fill="none" xmlns="http://www.w3.org/2000/svg">
<path fill-rule="evenodd" clip-rule="evenodd" d="M7.99999 2.2439C8.93403 2.2089 9.86935 2.23496 10.8 2.3219C11.2514 2.31616 11.6998 2.3952 12.122 2.5549C12.7044 2.82638 13.1725 3.29447 13.444 3.8769C13.6042 4.29935 13.6835 4.74814 13.678 5.1999C13.678 5.8999 13.756 6.1329 13.756 7.9999C13.791 8.93394 13.7649 9.86926 13.678 10.7999C13.6837 11.2513 13.6047 11.6997 13.445 12.1219C13.1735 12.7043 12.7054 13.1724 12.123 13.4439C11.7008 13.6036 11.2524 13.6826 10.801 13.6769C10.101 13.6769 9.86799 13.7549 8.00099 13.7549C7.06696 13.7899 6.13163 13.7638 5.20099 13.6769C4.74963 13.6826 4.3012 13.6036 3.87899 13.4439C3.29657 13.1724 2.82847 12.7043 2.55699 12.1219C2.39661 11.6998 2.31689 11.2514 2.32199 10.7999C2.32199 10.0999 2.24399 9.8669 2.24399 7.9999C2.209 7.06586 2.23505 6.13054 2.32199 5.1999C2.31625 4.74854 2.39529 4.30011 2.55499 3.8779C2.6909 3.58935 2.87524 3.32621 3.09999 3.0999C3.28254 2.82802 3.55997 2.63403 3.87799 2.5559C4.30013 2.39586 4.74856 2.31648 5.19999 2.3219C6.13063 2.23496 7.06596 2.2089 7.99999 2.2439ZM7.99999 0.999901C7.03997 0.965724 6.07875 0.991775 5.12199 1.0779C4.53748 1.07653 3.95763 1.18192 3.41099 1.3889C2.93911 1.54296 2.51205 1.81005 2.16699 2.1669C1.81014 2.51195 1.54305 2.93902 1.38899 3.4109C1.14483 3.94655 1.03795 4.53459 1.07799 5.1219C0.991866 6.07866 0.965815 7.03988 0.999992 7.9999C0.965815 8.95992 0.991866 9.92114 1.07799 10.8779C1.07662 11.4624 1.18201 12.0423 1.38899 12.5889C1.54305 13.0608 1.81014 13.4878 2.16699 13.8329C2.51205 14.1898 2.93911 14.4568 3.41099 14.6109C3.95763 14.8179 4.53748 14.9233 5.12199 14.9219C6.07875 15.008 7.03997 15.0341 7.99999 14.9999C8.96001 15.0341 9.92123 15.008 10.878 14.9219C11.4625 14.9233 12.0424 14.8179 12.589 14.6109C13.0574 14.4495 13.4829 14.1835 13.8333 13.8332C14.1836 13.4829 14.4496 13.0573 14.611 12.5889C14.818 12.0423 14.9234 11.4624 14.922 10.8779C14.922 10.0999 15 9.8669 15 7.9999C15.0342 7.03988 15.0081 6.07866 14.922 5.1219C14.9234 4.53739 14.818 3.95754 14.611 3.4109C14.4569 2.93902 14.1898 2.51195 13.833 2.1669C13.4879 1.81005 13.0609 1.54296 12.589 1.3889C12.0424 1.18192 11.4625 1.07653 10.878 1.0779C9.92123 0.991775 8.96001 0.965724 7.99999 0.999901ZM7.99999 4.4219C7.52796 4.41406 7.05917 4.50125 6.62153 4.67828C6.18388 4.85531 5.78631 5.11858 5.45249 5.4524C5.11867 5.78622 4.85541 6.18379 4.67837 6.62143C4.50134 7.05908 4.41415 7.52787 4.42199 7.9999C4.42199 8.70756 4.63184 9.39933 5.02499 9.98773C5.41815 10.5761 5.97696 11.0347 6.63075 11.3055C7.28454 11.5764 8.00396 11.6472 8.69803 11.5092C9.39209 11.3711 10.0296 11.0303 10.53 10.5299C11.0304 10.0295 11.3712 9.392 11.5092 8.69793C11.6473 8.00387 11.5764 7.28445 11.3056 6.63066C11.0348 5.97687 10.5762 5.41806 9.98782 5.0249C9.39942 4.63175 8.70765 4.4219 7.99999 4.4219ZM7.99999 10.3329C7.69209 10.3385 7.38622 10.2819 7.10066 10.1666C6.81509 10.0514 6.55569 9.87972 6.33793 9.66196C6.12017 9.44421 5.94853 9.1848 5.83326 8.89924C5.71798 8.61367 5.66143 8.3078 5.66699 7.9999C5.66143 7.692 5.71798 7.38613 5.83326 7.10057C5.94853 6.815 6.12017 6.55559 6.33793 6.33784C6.55569 6.12008 6.81509 5.94844 7.10066 5.83317C7.38622 5.71789 7.69209 5.66134 7.99999 5.6669C8.3079 5.66134 8.61376 5.71789 8.89933 5.83317C9.18489 5.94844 9.4443 6.12008 9.66206 6.33784C9.87981 6.55559 10.0515 6.815 10.1667 7.10057C10.282 7.38613 10.3386 7.692 10.333 7.9999C10.3386 8.3078 10.282 8.61367 10.1667 8.89924C10.0515 9.1848 9.87981 9.44421 9.66206 9.66196C9.4443 9.87972 9.18489 10.0514 8.89933 10.1666C8.61376 10.2819 8.3079 10.3385 7.99999 10.3329ZM11.733 3.4109C11.5637 3.4109 11.3982 3.4611 11.2574 3.55516C11.1167 3.64922 11.0069 3.78291 10.9422 3.93932C10.8774 4.09574 10.8604 4.26785 10.8934 4.4339C10.9265 4.59995 11.008 4.75247 11.1277 4.87218C11.2474 4.9919 11.3999 5.07342 11.566 5.10645C11.732 5.13948 11.9042 5.12253 12.0606 5.05774C12.217 4.99295 12.3507 4.88324 12.4447 4.74247C12.5388 4.6017 12.589 4.4362 12.589 4.2669C12.5872 4.04044 12.4964 3.82378 12.3363 3.66364C12.1761 3.5035 11.9595 3.41273 11.733 3.4109Z" fill="#ED165F"/>
</svg>
