<svg width="14" height="12" viewBox="0 0 14 12" fill="none" xmlns="http://www.w3.org/2000/svg">
<path fill-rule="evenodd" clip-rule="evenodd" d="M4.433 11.3561C5.50822 11.3658 6.5746 11.1612 7.56987 10.7543C8.56513 10.3473 9.46933 9.74608 10.2297 8.98575C10.99 8.22543 11.5912 7.32123 11.9982 6.32596C12.4051 5.33069 12.6097 4.26431 12.6 3.1891V2.8001C13.1434 2.3863 13.6162 1.88716 14 1.3221C13.4786 1.54899 12.9295 1.70601 12.367 1.7891C12.9454 1.42571 13.3838 0.877305 13.611 0.233096C13.049 0.546021 12.4472 0.781489 11.822 0.933096C11.5588 0.636773 11.2352 0.400206 10.873 0.239282C10.5108 0.0783579 10.1183 -0.0031965 9.722 9.58566e-05C8.96225 0.0114528 8.2368 0.318316 7.69951 0.855603C7.16222 1.39289 6.85536 2.11834 6.844 2.8781C6.82638 3.0886 6.85295 3.30046 6.922 3.5001C5.77752 3.44488 4.65805 3.1457 3.63861 2.62262C2.61917 2.09953 1.72329 1.36461 1.011 0.467096C0.755013 0.917552 0.620934 1.42698 0.622002 1.9451C0.632276 2.41513 0.749669 2.87662 0.965244 3.29443C1.18082 3.71223 1.48889 4.07534 1.866 4.3561C1.39853 4.34662 0.942099 4.21232 0.543999 3.9671C0.543268 4.63318 0.776435 5.27837 1.20282 5.7901C1.6292 6.30183 2.22172 6.64761 2.877 6.7671C2.62367 6.83545 2.36085 6.8618 2.099 6.8451C1.91421 6.85743 1.72888 6.83086 1.555 6.7671C1.74529 7.3434 2.10887 7.84689 2.59606 8.2088C3.08325 8.5707 3.6703 8.77336 4.277 8.7891C3.25478 9.58743 1.997 10.0249 0.700001 10.0331C0.463968 10.0457 0.22747 10.0193 0 9.9551C1.28698 10.8897 2.84269 11.381 4.433 11.3551" fill="#ED165F"/>
</svg>
