<svg width="20" height="16" viewBox="0 0 20 16" fill="none" xmlns="http://www.w3.org/2000/svg">
<path d="M0.714286 2.93878H19.2857C19.6802 2.93878 20 2.64641 20 2.28571V0.653061C20 0.292367 19.6802 0 19.2857 0H0.714286C0.319777 0 0 0.292367 0 0.653061V2.28571C0 2.64641 0.319777 2.93878 0.714286 2.93878ZM0.714286 9.46939H19.2857C19.6802 9.46939 20 9.17702 20 8.81633V7.18367C20 6.82298 19.6802 6.53061 19.2857 6.53061H0.714286C0.319777 6.53061 0 6.82298 0 7.18367V8.81633C0 9.17702 0.319777 9.46939 0.714286 9.46939ZM0.714286 16H19.2857C19.6802 16 20 15.7076 20 15.3469V13.7143C20 13.3536 19.6802 13.0612 19.2857 13.0612H0.714286C0.319777 13.0612 0 13.3536 0 13.7143V15.3469C0 15.7076 0.319777 16 0.714286 16Z" fill="#ED165F"/>
</svg>
