<svg width="1100" height="638" viewBox="0 0 1100 638" fill="none" xmlns="http://www.w3.org/2000/svg">
<path d="M84.5871 146.595L84.5866 146.595C74.0928 155.771 61.8658 167.1 55.2115 178.718C51.8909 184.516 50.0103 190.299 50.3565 195.863C50.7006 201.392 53.2515 206.837 59.0539 211.979L59.0541 211.98C71.0682 222.633 86.9618 229.82 103.693 236.495C106.985 237.809 110.31 239.102 113.642 240.399C127.19 245.669 140.859 250.988 152.901 257.862M84.5871 146.595L152.406 258.73M84.5871 146.595C86.9187 144.553 102.227 133.061 118.104 122.642C126.038 117.436 134.077 112.523 140.682 109.201C143.988 107.538 146.899 106.292 149.238 105.602C150.408 105.258 151.403 105.062 152.214 105.013C152.763 104.979 153.191 105.016 153.516 105.096M84.5871 146.595L94.6487 168.525M152.901 257.862L152.406 258.73M152.901 257.862C152.901 257.862 152.901 257.862 152.901 257.862L152.406 258.73M152.901 257.862C160.886 262.417 165.207 268 166.841 274.184C168.466 280.335 167.388 286.923 164.903 293.43C160.478 305.016 151.434 316.714 144.359 325.867C143.51 326.964 142.69 328.025 141.91 329.045C105.057 377.202 72.9461 428.589 45.4706 478.988L45.4704 478.989C43.6727 482.283 39.0033 493.39 33.3131 508.298C27.6348 523.175 20.9684 541.761 15.1802 559.959C9.38845 578.169 4.48965 595.949 2.32995 609.229C1.24763 615.884 0.868692 621.323 1.36891 625.097C1.53958 626.384 1.80725 627.433 2.15669 628.254M152.406 258.73C181.954 275.588 158.593 305.814 143.568 325.254C142.72 326.351 141.899 327.413 141.115 328.437C104.226 376.643 72.0874 428.075 44.5926 478.51C37.5917 491.337 -10.9235 617.663 2.48066 630.542C2.46562 630.496 2.45128 630.45 2.43761 630.403C2.25814 629.793 2.1708 629.069 2.15669 628.254M2.15669 628.254C2.32012 628.638 2.50143 628.972 2.69907 629.258C2.90095 629.549 3.12009 629.791 3.3597 629.986C-0.348978 615.666 47.4364 510.457 52.0141 503.156C86.6985 448.058 134.952 396.387 184.551 345.659M2.15669 628.254C2.1452 627.59 2.18234 626.867 2.25791 626.096C2.59764 622.633 3.76509 617.783 5.49863 612.04C8.97268 600.53 14.7945 585.194 21.1384 569.664C27.4851 554.128 34.3654 538.371 39.9656 526.01C42.7657 519.829 45.2471 514.494 47.1829 510.457C49.1059 506.447 50.5178 503.66 51.1669 502.625L51.1678 502.624C85.9152 447.425 134.238 395.686 183.836 344.96L184.551 345.659M184.551 345.659L183.836 344.96C193.834 334.735 203.942 323.105 210.812 311.009C217.686 298.906 221.248 286.465 218.373 274.552M184.551 345.659C204.587 325.169 225.265 298.847 219.346 274.317M139.747 224.19C95.4968 208.619 71.2424 199.994 94.6487 168.525M139.747 224.19L139.415 225.134C128.362 221.244 118.514 217.774 110.346 214.268C102.191 210.767 95.6114 207.191 91.1468 203.053C86.645 198.88 84.252 194.09 84.5999 188.25C84.9432 182.485 87.9509 175.855 93.8463 167.929L93.8474 167.927C94.5344 167.007 96.0653 165.347 98.1488 163.19C100.251 161.014 102.963 158.284 106.055 155.2C108.36 152.9 110.875 150.404 113.508 147.792C117.944 143.391 122.712 138.659 127.368 133.981C134.786 126.527 141.891 119.235 146.866 113.675C149.358 110.889 151.289 108.567 152.457 106.889C153.011 106.093 153.354 105.497 153.516 105.096M139.747 224.19C140.905 224.598 142.072 225.007 143.245 225.419C175.987 236.908 213.486 250.067 219.346 274.317M139.747 224.19L139.415 225.134C140.569 225.54 141.73 225.947 142.896 226.356C158.7 231.902 175.521 237.805 189.37 245.139C204.281 253.035 215.447 262.44 218.373 274.552M94.6487 168.525C96.4097 166.167 104.506 158.133 114.208 148.507C132.785 130.073 157.248 105.799 154.381 104.353L94.6487 168.525ZM153.516 105.096C153.677 105.136 153.814 105.186 153.927 105.244C153.711 105.133 153.624 104.92 153.613 104.807C153.612 104.795 153.612 104.789 153.611 104.789C153.61 104.789 153.606 104.856 153.547 105.016C153.538 105.041 153.527 105.068 153.516 105.096ZM219.346 274.317L218.373 274.552M219.346 274.317L218.373 274.551C218.373 274.551 218.373 274.552 218.373 274.552" stroke="white" stroke-width="2"/>
<path d="M116.262 40.3429L116.261 40.3433C113.621 41.481 110.782 41.1574 107.915 39.965C105.059 38.7772 102.076 36.6895 99.0423 34.132C94.9464 30.6793 90.6185 26.2452 86.2699 21.7898C84.1988 19.6679 82.1231 17.5412 80.0654 15.5134C76.8492 12.3492 73.6613 9.41117 70.552 7.04018C67.4358 4.66401 64.4485 2.89643 61.6369 2.02469C58.8469 1.15968 56.2696 1.18641 53.8842 2.33905C51.4768 3.50229 49.1273 5.87831 46.9475 9.98501L46.9474 9.98525C45.119 13.4277 44.9824 16.9252 46.2019 20.4899C47.4339 24.0913 50.0611 27.7835 53.8012 31.4999C61.283 38.9345 72.9824 46.2374 85.8905 52.8942C108.342 64.4726 134.198 73.9648 147.179 78.7306C149.113 79.4406 150.761 80.0456 152.07 80.5371L152.07 80.5371C171.006 87.6503 188.665 98.1772 206.284 108.68C211.364 111.709 216.441 114.735 221.544 117.677L221.544 117.677C258.436 138.955 276.458 142.436 294.822 145.286L294.824 145.286C304.233 146.766 319.151 148.318 337.05 146.166L337.051 146.166C349.458 144.684 364.23 142.885 376.691 133.726C383.461 128.737 387.696 122.93 389.746 120.118L389.79 120.058C389.79 120.058 389.791 120.057 389.791 120.057C392.614 116.165 394.807 112.233 396.183 109.244C396.47 108.62 396.72 108.041 396.931 107.516C396.888 107.569 396.845 107.623 396.801 107.678C396.645 107.873 396.48 108.079 396.306 108.296C394.504 110.537 391.844 113.781 388.065 117.607L388.064 117.608L387.804 117.87C384.736 120.971 380.708 125.041 375.793 128.379C364.456 136.105 351.605 137.95 344.713 138.871M116.262 40.3429L344.581 137.88M116.262 40.3429C116.802 40.1097 117.208 39.6963 117.517 39.258C117.829 38.8169 118.085 38.2903 118.305 37.7382C118.744 36.6404 119.104 35.2764 119.455 33.9457C119.814 32.5861 120.168 31.2526 120.602 30.107C121.044 28.9392 121.517 28.1157 122.033 27.6682L116.262 40.3429ZM344.713 138.871L344.581 137.88M344.713 138.871C344.713 138.871 344.713 138.871 344.713 138.871L344.581 137.88M344.713 138.871C332.325 140.532 322.937 139.208 311.698 137.622C311.33 137.57 310.96 137.518 310.588 137.466L310.587 137.466C297.896 135.666 286.189 132.645 275.205 128.397M344.581 137.88C332.33 139.522 323.062 138.215 311.805 136.627C311.448 136.577 311.089 136.526 310.727 136.475C298.107 134.686 286.474 131.683 275.566 127.464M275.205 128.397C275.205 128.397 275.205 128.397 275.205 128.397L275.566 127.464M275.205 128.397C264.199 124.149 253.948 118.678 244.127 111.987L244.124 111.984C242.355 110.769 231.565 103.104 221.305 95.6434L221.304 95.6428C216.184 91.912 211.182 88.2207 207.502 85.4003C205.664 83.9917 204.144 82.7915 203.102 81.9088C202.584 81.4708 202.163 81.0929 201.875 80.798C201.737 80.6564 201.595 80.4981 201.489 80.3396C201.439 80.2655 201.358 80.1352 201.308 79.9684C201.264 79.8237 201.178 79.4201 201.457 79.0323C203.626 76.0084 206.907 74.1066 210.447 72.6384C212.223 71.9019 214.093 71.2632 215.954 70.6488C216.338 70.5219 216.722 70.3961 217.104 70.2707C218.584 69.7856 220.046 69.3062 221.47 68.7874C225.066 67.4776 228.249 65.982 230.523 63.7348C232.753 61.5316 234.174 58.5407 234.116 54.0688C234.065 50.1293 232.841 47.1237 230.845 44.7964C228.833 42.4511 225.983 40.7344 222.596 39.4893C215.796 36.99 207.09 36.4591 199.43 36.3737C195.966 36.3399 192.773 36.542 189.608 36.7423C188.17 36.8332 186.738 36.9238 185.289 36.9918C180.678 37.2299 175.994 37.2296 170.727 36.222M275.205 128.397L275.566 127.464M275.566 127.464C264.635 123.246 254.452 117.811 244.69 111.16L170.727 36.222M170.727 36.222C165.286 35.1835 160.896 33.0078 156.742 30.8478C156.354 30.6458 155.968 30.4439 155.583 30.2426C151.823 28.2759 148.196 26.3788 143.937 25.2604L143.936 25.26L143.755 25.2122C139.25 24.0217 135.673 23.0765 132.301 23.1807C128.97 23.2836 125.759 24.4412 122.033 27.6678L170.727 36.222ZM397.753 104.959C397.781 104.929 397.807 104.9 397.833 104.873C397.892 104.99 398.015 105.163 398.26 105.262L398.636 104.336L398.274 105.268C398.448 105.335 398.6 105.331 398.704 105.313C398.696 105.354 398.687 105.396 398.677 105.439L397.753 104.959Z" stroke="white" stroke-width="2"/>
<path d="M334.275 338.397C330.949 345.369 327.556 352.623 324.118 360.183C320.658 367.742 317.482 375.193 314.523 382.559L334.275 338.397ZM334.275 338.397C335.483 332.59 335.595 328.017 334.633 324.724C333.671 321.431 332.291 318.897 330.45 317.123L334.275 338.397ZM365.207 370.108L365.205 370.111L355.497 392.059L354.585 391.647C354.585 391.648 354.585 391.648 354.585 391.648C351.417 398.656 349.14 404.903 347.721 410.408C347.124 412.664 346.827 414.52 346.899 415.916C346.969 417.277 347.432 418.592 348.766 419.038C349.851 419.401 351.171 419.126 352.559 418.554C353.987 417.966 355.693 416.975 357.671 415.611C364.549 411.143 371.811 405.265 379.435 398.007C387.071 390.758 394.642 383.008 402.17 374.781C409.694 366.557 416.937 358.243 423.876 349.818C430.806 341.402 436.972 333.765 442.351 326.905C447.724 320.053 452.177 314.347 455.689 309.79C457.44 307.529 458.824 305.789 459.839 304.57C460.348 303.96 460.758 303.488 461.072 303.149C461.229 302.98 461.356 302.85 461.455 302.757C461.562 302.655 461.607 302.622 461.606 302.623L461.63 302.608L461.652 302.591C462.196 302.188 463.06 301.928 464.409 301.935C465.7 301.942 466.887 302.255 468.004 302.86C469.1 303.453 469.921 304.264 470.521 305.269C470.962 306.038 471.014 307.122 470.306 308.703C469.723 309.825 467.908 312.837 464.783 317.738C461.655 322.643 457.474 328.766 452.193 336.11C446.915 343.448 440.783 351.546 433.753 360.426C426.725 369.302 419.152 378.372 411.075 387.637C402.985 396.893 394.461 405.907 385.504 414.659L385.504 414.66C376.567 423.413 367.531 431.231 358.417 438.137C356.855 439.116 354.565 440.604 351.57 442.598L351.565 442.601C348.608 444.592 345.102 446.484 341.061 448.272L341.057 448.274C337.044 450.072 332.725 451.465 328.115 452.516C323.564 453.532 319.138 453.74 314.808 453.147C311.48 452.568 308.942 451.285 307.11 449.334L307.107 449.33C305.224 447.346 303.915 444.707 303.18 441.334L303.18 441.333C302.442 437.968 302.267 434.046 302.677 429.55C303.089 425.052 303.892 420.179 305.066 414.994L305.856 411.508L303.372 414.078C299.129 418.468 293.903 422.909 287.707 427.423C281.515 431.933 275.066 435.945 268.403 439.48C261.709 443.019 255.241 445.97 248.956 448.358C242.686 450.741 237.417 451.979 233.105 452.125C226.223 452.28 220.369 451.281 215.492 449.189C210.569 447.078 206.597 444.284 203.527 440.8C200.434 437.291 198.196 433.37 196.805 429.032C195.401 424.657 194.725 420.295 194.748 415.94C194.782 409.835 195.785 402.779 197.754 394.785C199.72 386.805 202.619 378.537 206.413 369.958C210.223 361.415 214.986 352.936 220.726 344.566C226.457 336.21 233.137 328.44 240.812 321.258L240.813 321.257C248.456 314.084 257.002 307.865 266.476 302.621C275.917 297.396 286.414 293.743 297.975 291.69L297.98 291.689C305.105 290.391 311.409 290.045 316.903 290.65L316.903 290.65C322.447 291.259 327.2 292.566 331.246 294.553C335.299 296.565 338.608 299.154 341.212 302.357C343.851 305.601 345.8 309.001 347.111 312.577L347.884 314.686L348.934 312.7C351.284 308.256 353.391 304.4 355.255 301.11C357.119 297.841 358.622 295.346 359.767 293.617L359.784 293.591L359.799 293.565C362.882 288.226 366.042 284.431 369.19 282.123C372.433 279.766 375.411 278.192 378.086 277.379C380.823 276.547 383.12 276.245 384.963 276.432C387.069 276.683 388.532 276.806 389.355 276.81C392.708 276.829 395.37 277.535 397.375 278.867C399.499 280.279 401.096 281.847 402.147 283.533C403.225 285.284 403.9 287.093 404.151 288.964C404.413 290.938 404.441 292.528 404.281 293.754C403.497 297.312 401.771 301.868 399.045 307.439C396.298 313.05 393.113 319.227 389.487 325.993C385.862 332.76 381.885 339.961 377.577 347.598C373.264 355.246 369.147 362.764 365.207 370.108ZM256.072 429.534L256.085 429.534L256.099 429.533C259.574 429.345 263.941 428.001 269.158 425.592L269.16 425.591C274.387 423.167 279.8 419.848 285.396 415.665C290.998 411.478 296.444 406.614 301.756 401.077C307.087 395.519 311.632 389.514 315.388 383.062L315.424 382.999L315.451 382.932C318.404 375.579 321.574 368.142 325.027 360.599L325.028 360.597C328.464 353.044 331.854 345.795 335.178 338.828L335.23 338.719L335.254 338.601C336.475 332.732 336.623 327.969 335.593 324.444C334.6 321.043 333.149 318.335 331.144 316.403L331.139 316.399C329.175 314.529 326.951 313.314 324.411 312.759L324.404 312.757C322.067 312.264 320.15 311.998 318.704 311.987C314.912 311.762 310.512 313.375 305.579 316.588C300.634 319.81 295.419 324.162 289.914 329.585L289.913 329.587C284.406 335.034 278.923 341.242 273.419 348.229C267.913 355.22 262.909 362.41 258.385 369.779L258.384 369.78C253.86 377.17 250.011 384.417 246.86 391.522C243.683 398.637 241.717 404.994 240.996 410.538L240.996 410.538C240.274 416.112 240.922 420.726 243.11 424.308L243.112 424.312C245.437 428.077 249.908 429.701 256.072 429.534Z" stroke="white" stroke-width="2"/>
<path d="M470.943 433.171L469.949 433.277C469.949 433.277 469.949 433.277 469.949 433.277C468.668 421.28 466.926 410.244 464.769 400.166C462.583 390.081 460.543 381.352 458.65 373.976L458.56 373.625L458.714 373.299C460.278 369.999 461.796 366.766 463.271 363.577C464.747 360.384 466.249 357.142 467.838 353.833L468.175 353.132L468.937 353.286C474.913 354.489 481.984 355.635 490.109 356.744L490.111 356.745C498.233 357.873 506.861 358.593 516.063 358.925C525.25 359.257 534.526 358.983 543.893 358.058L543.895 358.058C553.23 357.159 562 355.221 570.187 352.291C578.355 349.367 585.705 345.28 592.243 340.052C598.723 334.871 603.693 328.098 607.187 319.726C608.307 316.823 608.315 314.393 607.401 312.367C606.438 310.236 605.011 308.816 603.144 308.042C601.302 307.286 599.215 307.372 596.78 308.431L596.778 308.432C594.44 309.441 592.394 311.634 590.692 315.178C587.617 321.824 582.156 326.765 574.371 330.003C566.663 333.21 557.664 335.271 547.389 336.18C537.134 337.088 526.106 337.136 514.327 336.285L469.239 512.217M470.943 433.171C472.228 445.219 472.942 457.94 473.065 471.333C473.188 484.725 472.242 498.417 470.228 512.364M470.943 433.171C469.659 421.143 467.912 410.072 465.746 399.956L470.943 433.171ZM470.228 512.364L469.239 512.216C469.239 512.216 469.239 512.216 469.239 512.217M470.228 512.364L469.238 512.221C469.238 512.22 469.239 512.218 469.239 512.217M470.228 512.364C467.2 532.534 463.23 549.649 458.298 563.689C453.365 577.729 447.967 589.263 442.104 598.246C436.241 607.229 430.171 614.185 423.938 619.116M469.239 512.217C466.217 532.345 462.26 549.395 457.354 563.358C452.439 577.349 447.072 588.804 441.267 597.699C435.444 606.62 429.443 613.486 423.318 618.332M423.938 619.116L423.319 618.331C423.319 618.331 423.318 618.332 423.318 618.332M423.938 619.116C417.705 624.025 411.763 627.586 406.111 629.798L423.318 618.332M423.938 619.116L423.318 618.332M525.253 207.953C528.141 207.796 530.575 208.405 532.588 209.73C534.656 211.105 536.223 212.874 537.306 215.048C538.365 217.216 538.822 219.609 538.624 222.248C538.424 224.903 537.673 227.316 536.394 229.499C527.973 242.858 518.848 258.213 509.039 275.519L509.039 275.519C499.224 292.857 489.316 311.391 479.316 331.165L478.688 332.406L480.064 332.606C491.142 334.216 502.57 335.457 514.326 336.285L525.253 207.953ZM454.299 506.675L454.308 506.631L454.313 506.585C456.363 487.304 456.376 469.284 454.322 452.486C452.273 435.72 449.034 420.505 444.622 406.824L443.83 404.366L442.76 406.716C435.087 423.58 427.763 440.228 420.788 456.704C413.789 473.187 407.6 488.891 402.177 503.817C396.754 518.743 392.208 532.589 388.538 545.311C384.867 558.038 382.377 569.135 381.055 578.595C379.732 588.052 379.784 595.668 381.236 601.387L381.237 601.391C381.984 604.285 383.199 606.616 384.934 608.312C386.678 610.018 388.886 611.021 391.502 611.352L391.513 611.354C402.41 612.615 411.458 610.083 418.534 603.689C425.491 597.404 431.187 588.987 435.664 578.544L435.664 578.543C440.126 568.114 443.734 556.532 446.537 543.779L446.537 543.777C449.308 531.071 451.903 518.689 454.299 506.675Z" stroke="white" stroke-width="2"/>
<path d="M667.648 340.218C664.322 347.189 660.929 354.444 657.49 362.003C654.03 369.562 650.854 377.014 647.896 384.379L667.648 340.218ZM667.648 340.218C668.855 334.41 668.967 329.838 668.006 326.544C667.044 323.251 665.664 320.718 663.823 318.944L667.648 340.218ZM698.579 371.928L698.577 371.932L688.869 393.879L687.958 393.468C687.958 393.468 687.957 393.468 687.957 393.469C684.79 400.476 682.513 406.723 681.093 412.228C680.497 414.485 680.199 416.34 680.271 417.736C680.342 419.097 680.804 420.412 682.138 420.858C683.224 421.221 684.543 420.947 685.931 420.375C687.359 419.786 689.066 418.795 691.043 417.431C697.922 412.964 705.184 407.085 712.807 399.827C720.443 392.578 728.014 384.828 735.542 376.601C743.067 368.377 750.31 360.064 757.248 351.638C764.179 343.223 770.345 335.585 775.723 328.725C781.096 321.873 785.55 316.168 789.062 311.611C790.813 309.349 792.196 307.61 793.212 306.391C793.721 305.78 794.13 305.309 794.444 304.97C794.601 304.8 794.728 304.671 794.827 304.577C794.934 304.475 794.98 304.443 794.979 304.443L795.002 304.428L795.024 304.412C795.568 304.008 796.432 303.748 797.781 303.756C799.073 303.763 800.259 304.076 801.377 304.681C802.472 305.274 803.293 306.085 803.894 307.089C804.335 307.859 804.386 308.943 803.679 310.524C803.096 311.645 801.28 314.657 798.156 319.558C795.028 324.463 790.847 330.587 785.565 337.93C780.288 345.269 774.156 353.367 767.125 362.246C760.098 371.122 752.524 380.192 744.447 389.458C736.357 398.713 727.834 407.728 718.877 416.479L718.876 416.48C709.94 425.233 700.904 433.051 691.79 439.957C690.228 440.936 687.937 442.424 684.942 444.419L684.938 444.422C681.981 446.413 678.474 448.304 674.434 450.093L674.43 450.094C670.417 451.892 666.097 453.286 661.487 454.337C656.937 455.352 652.511 455.56 648.181 454.968C644.853 454.388 642.314 453.106 640.483 451.155L640.479 451.151C638.596 449.166 637.287 446.528 636.552 443.154L636.552 443.153C635.815 439.789 635.639 435.866 636.049 431.37C636.461 426.872 637.264 421.999 638.439 416.815L639.229 413.329L636.745 415.899C632.502 420.288 627.276 424.73 621.079 429.243C614.888 433.754 608.439 437.765 601.775 441.3C595.081 444.839 588.614 447.791 582.329 450.179C576.058 452.561 570.79 453.8 566.477 453.945C559.596 454.1 553.742 453.101 548.864 451.009C543.941 448.898 539.969 446.105 536.899 442.62C533.807 439.111 531.569 435.19 530.177 430.853C528.774 426.478 528.097 422.115 528.121 417.76C528.154 411.655 529.157 404.6 531.127 396.605C533.092 388.625 535.991 380.357 539.785 371.778C543.595 363.235 548.358 354.756 554.099 346.386C559.83 338.03 566.51 330.261 574.184 323.078L574.185 323.078C581.828 315.904 590.375 309.685 599.848 304.442C609.289 299.216 619.786 295.563 631.348 293.511L631.352 293.51C638.478 292.211 644.781 291.865 650.275 292.471L650.276 292.471C655.819 293.079 660.573 294.386 664.619 296.373C668.672 298.385 671.98 300.974 674.585 304.177C677.224 307.422 679.172 310.821 680.483 314.397L681.256 316.506L682.306 314.521C684.657 310.076 686.764 306.221 688.627 302.931C690.491 299.661 691.994 297.167 693.14 295.437L693.156 295.412L693.172 295.385C696.255 290.047 699.415 286.252 702.563 283.943C705.805 281.587 708.784 280.013 711.458 279.199C714.195 278.367 716.492 278.066 718.336 278.253C720.442 278.503 721.904 278.626 722.728 278.631C726.081 278.649 728.743 279.355 730.747 280.688C732.871 282.1 734.468 283.667 735.52 285.353C736.598 287.104 737.272 288.913 737.524 290.785C737.785 292.758 737.813 294.348 737.654 295.574C736.87 299.133 735.143 303.688 732.417 309.259C729.671 314.87 726.486 321.048 722.86 327.814C719.234 334.58 715.257 341.781 710.95 349.418C706.636 357.067 702.52 364.585 698.579 371.928ZM589.444 431.354L589.458 431.354L589.471 431.353C592.947 431.165 597.313 429.821 602.531 427.412L602.532 427.412C607.76 424.988 613.172 421.668 618.769 417.485C624.371 413.298 629.817 408.435 635.128 402.897C640.459 397.34 645.004 391.335 648.76 384.882L648.797 384.819L648.824 384.752C651.777 377.4 654.947 369.963 658.4 362.419L658.401 362.417C661.836 354.864 665.226 347.615 668.55 340.648L668.602 340.539L668.627 340.421C669.847 334.553 669.995 329.79 668.965 326.264C667.972 322.864 666.522 320.155 664.516 318.224L664.512 318.219C662.547 316.35 660.323 315.135 657.783 314.579L657.777 314.578C655.439 314.084 653.523 313.819 652.076 313.808C648.285 313.583 643.885 315.196 638.952 318.409C634.006 321.63 628.792 325.983 623.287 331.406L623.285 331.407C617.778 336.855 612.295 343.063 606.792 350.05C601.286 357.04 596.282 364.231 591.757 371.599L591.757 371.601C587.233 378.99 583.383 386.237 580.233 393.342C577.056 400.457 575.09 406.814 574.369 412.358L574.369 412.359C573.647 417.933 574.294 422.546 576.482 426.128L576.485 426.132C578.81 429.897 583.281 431.522 589.444 431.354Z" stroke="white" stroke-width="2"/>
<path d="M797.145 257.783L797.139 257.783C792.714 257.945 788.898 259.487 785.569 262.428C782.241 265.425 779.437 268.959 777.135 273.036C774.825 277.128 773.138 281.346 772.07 285.711C770.99 290.12 770.558 293.688 770.73 296.466L770.731 296.489L770.731 296.512C770.875 305.724 772.862 312.342 776.496 316.573C780.232 320.924 784.577 323.745 789.493 325.065C794.498 326.409 799.519 326.732 804.522 325.997C809.63 325.246 813.581 324.302 816.405 323.202L816.423 323.195L816.441 323.189C819.369 322.177 821.948 322.331 823.956 323.986L823.962 323.991C825.029 324.886 825.529 326.065 825.359 327.439C825.201 328.722 824.472 330.078 823.358 331.485C822.794 332.23 821.394 334.356 819.155 337.934L819.153 337.938C816.903 341.497 814.21 346.082 811.093 351.673C807.981 357.275 804.734 363.595 801.416 370.636C798.106 377.661 795.207 384.837 792.763 392.167C790.321 399.488 788.487 406.786 787.302 414.104C786.122 421.387 786.091 428.065 787.187 434.147C788.297 440.18 790.842 445.354 794.863 449.694C798.849 453.997 804.688 457.154 812.517 459.104C820.653 461.041 829.16 460.668 838.058 457.956C846.991 455.204 856.013 450.94 865.102 445.11C874.203 439.272 883.233 432.217 892.168 423.961C901.118 415.691 909.636 407.029 917.721 397.973C925.814 388.908 933.362 379.908 940.386 370.928C947.417 361.94 953.459 353.802 958.538 346.467C963.624 339.121 967.675 332.997 970.694 328.092L970.695 328.091C972.218 325.622 973.373 323.669 974.169 322.217C974.568 321.491 974.871 320.9 975.084 320.439C975.3 319.973 975.396 319.697 975.425 319.568C976.006 316.22 975.646 313.795 974.587 312.15C973.446 310.378 972.009 309.257 970.234 308.755C968.381 308.232 966.56 308.26 964.7 308.861C962.922 309.464 961.618 310.585 960.747 312.284L960.745 312.289C956.994 319.514 951.824 327.588 945.244 336.508C938.688 345.447 931.436 354.444 923.51 363.542C915.587 372.637 907.405 381.532 899.006 390.23L899.005 390.231C890.581 398.933 882.615 406.574 875.085 413.153L875.084 413.154C867.542 419.724 860.948 424.964 855.242 428.84C852.396 430.792 849.929 432.227 847.853 433.125C845.815 434.007 844.017 434.433 842.561 434.185C840.213 433.845 838.343 432.821 837.075 431.057C835.825 429.318 835.242 426.973 835.212 424.135C835.153 418.551 836.328 411.894 838.718 404.184C841.104 396.485 844.323 388.167 848.37 379.231C852.388 370.311 856.426 361.913 860.462 354.058C864.492 346.214 868.063 339.512 871.217 333.981M797.145 257.783L872.087 334.475M797.145 257.783C801.048 257.617 804.152 258.471 806.526 260.252C808.789 261.949 810.017 264.797 809.994 269.07C809.983 271.019 809.302 273.883 807.833 277.743M797.145 257.783L807.833 277.743M871.217 333.981C871.218 333.98 871.218 333.98 871.218 333.979L872.087 334.475M871.217 333.981C871.217 333.981 871.217 333.982 871.217 333.982L872.087 334.475M871.217 333.981C874.329 328.486 876.31 325.096 877.131 323.902L877.138 323.892L877.138 323.892C878.393 322.112 879.298 319.785 879.775 316.895C880.249 314.022 880.135 311.318 879.41 308.748M872.087 334.475C875.209 328.961 877.165 325.618 877.956 324.468C879.316 322.538 880.266 320.06 880.762 317.058C881.257 314.056 881.142 311.203 880.373 308.476M879.41 308.748C879.411 308.749 879.411 308.749 879.411 308.75L880.373 308.476M879.41 308.748C878.694 306.229 877.352 304.102 875.374 302.367C873.517 300.739 870.706 299.915 866.783 300.081M879.41 308.748L880.373 308.476M880.373 308.476C879.604 305.772 878.157 303.478 876.033 301.615C873.91 299.753 870.8 298.908 866.727 299.082M807.833 277.743C806.358 281.596 804.841 285.469 803.281 289.319C801.126 293.766 798.86 298.495 796.505 303.528L796.275 304.02L796.563 304.481C797.403 305.825 798.832 306.732 800.666 307.292C802.499 307.853 804.822 308.096 807.598 308.055C813.083 307.997 819.364 307.393 826.395 306.25C833.394 305.112 840.592 303.909 847.967 302.576M807.833 277.743L866.727 299.082M847.967 302.576C847.966 302.576 847.966 302.576 847.965 302.576L847.791 301.592L847.969 302.576C847.968 302.576 847.967 302.576 847.967 302.576ZM847.967 302.576C855.328 301.271 861.583 300.441 866.783 300.081M866.783 300.081C866.788 300.08 866.792 300.08 866.796 300.08L866.727 299.082M866.783 300.081C866.779 300.081 866.774 300.081 866.77 300.081L866.727 299.082" stroke="white" stroke-width="2"/>
<path d="M991.13 340.473L991.13 340.472C995.815 331.722 998.717 324.812 999.875 319.708C1000.05 318.497 1000.01 316.916 999.743 314.927C999.491 313.032 998.815 311.174 997.73 309.329C996.664 307.551 995.062 305.999 992.863 304.708C990.713 303.447 987.992 302.679 984.615 302.468C983.799 302.462 982.355 302.363 980.336 302.18L980.325 302.179L980.325 302.179C978.48 301.99 976.18 302.291 973.439 303.124C970.773 303.935 967.799 305.547 964.558 308.009C961.394 310.413 958.251 314.155 955.147 319.321C953.002 322.973 949.624 329.059 945.028 337.565L945.027 337.567C940.42 346.056 935.585 355.724 930.479 366.55C925.378 377.367 920.513 388.665 915.905 400.465L915.905 400.466C911.284 412.244 907.999 423.078 906.02 432.993C904.044 442.895 903.866 451.188 905.44 457.89L905.44 457.894C906.201 461.19 907.612 463.708 909.628 465.523C911.645 467.338 914.339 468.514 917.776 469.002C922.303 469.598 926.839 469.327 931.39 468.227C935.999 467.112 940.257 465.653 944.189 463.853L944.193 463.851C948.148 462.062 951.641 460.166 954.719 458.167L954.723 458.165C957.84 456.162 960.068 454.687 961.401 453.731C970.537 446.81 980.16 438.89 990.293 429.926C1000.41 420.954 1010.36 411.764 1020.11 402.313C1029.87 392.858 1039.23 383.446 1048.2 374.097C1057.17 364.723 1065.07 356.239 1071.9 348.621C1078.73 340.999 1084.29 334.614 1088.58 329.509C1090.72 326.957 1092.39 324.897 1093.6 323.337C1094.81 321.775 1095.51 320.773 1095.77 320.283C1096.47 318.709 1096.42 317.642 1095.98 316.846C1095.38 315.844 1094.56 315.034 1093.46 314.442C1092.35 313.837 1091.16 313.524 1089.87 313.517C1088.52 313.51 1087.66 313.77 1087.11 314.173L1087.1 314.184L1087.08 314.195C1087.01 314.243 1086.8 314.422 1086.39 314.8C1086 315.158 1085.49 315.654 1084.85 316.289C1083.56 317.56 1081.77 319.373 1079.48 321.732L1078.77 321.036L1079.48 321.732C1074.88 326.476 1069.08 332.455 1062.05 339.689C1055.02 346.931 1047.06 354.907 1038.17 363.596C1029.27 372.283 1020.25 380.95 1011.07 389.529M991.13 340.473L950.892 434.028L950.806 435.024C953.568 435.263 956.972 433.945 960.919 431.44L960.929 431.433L960.939 431.427C967.603 426.971 975.331 421.021 984.121 413.585C992.907 406.153 1001.89 398.134 1011.07 389.529M991.13 340.473C986.427 349.279 981.241 358.649 975.551 368.606C969.848 378.585 964.406 388.717 959.204 398.981L959.204 398.982M991.13 340.473L959.204 398.982M1011.07 389.529L1010.39 388.798L1011.07 389.528C1011.07 389.528 1011.07 389.528 1011.07 389.529ZM959.204 398.982C953.989 409.293 950.272 418.55 948.07 426.767L959.204 398.982ZM1028 260.522L1028 260.523C1027.52 263.903 1026.41 267.276 1024.69 270.667L1024.69 270.669C1022.97 274.083 1020.92 276.991 1018.56 279.425C1016.18 281.868 1013.69 283.718 1011.1 284.996C1008.48 286.276 1005.8 287.008 1003.02 287.179C1000.26 287.349 997.714 286.883 995.384 285.776C990.684 283.39 987.71 279.123 986.529 272.743L986.529 272.742C985.347 266.402 986.357 259.832 989.603 253.023C991.322 249.613 993.371 246.707 995.723 244.276C998.085 241.834 1000.57 239.984 1003.18 238.707C1005.8 237.426 1008.49 236.694 1011.27 236.523C1014.02 236.353 1016.54 236.816 1018.89 237.921C1021.25 239.204 1023.2 240.993 1024.75 243.303C1026.31 245.634 1027.36 248.213 1027.91 251.094C1028.46 253.977 1028.48 257.131 1028 260.522Z" stroke="white" stroke-width="2"/>
</svg>
