<svg width="1100" height="639" viewBox="0 0 1100 639" fill="none" xmlns="http://www.w3.org/2000/svg">
<path d="M155.286 105.23C146.252 100.629 89.6032 142.543 84.8333 146.719C63.8723 165.049 35.4146 192.439 59.2956 213.605C83.61 235.165 123.462 242.568 153.311 259.607C184.527 277.416 156.693 310.145 142.02 329.315C105.131 377.52 72.9924 428.952 45.4976 479.387C38.151 492.848 -14.9097 631.29 5.83592 632.47C-6.35456 631.772 48.0205 511.846 52.9191 504.034C87.6035 448.935 135.857 397.264 185.456 346.537C205.492 326.046 226.17 299.724 220.25 275.194C214.182 250.076 174.165 236.857 140.652 225.068C96.4017 209.496 72.1474 200.871 95.5537 169.403C100.687 162.528 159.651 107.431 155.286 105.23Z" stroke="#fff" stroke-width="2"/>
<path d="M116.771 40.3022C118.015 39.7646 118.682 37.2641 119.393 34.5678C120.105 31.8716 120.861 29.0231 122.283 27.7896C126.155 24.4356 129.581 23.1695 133.175 23.0585C136.768 22.9475 140.552 23.9698 145.096 25.1705C149.923 26.4381 153.961 28.6812 158.109 30.8379C162.256 32.9945 166.534 35.1083 171.82 36.1171C176.976 37.1034 181.57 37.1067 186.144 36.8704C190.718 36.6558 195.272 36.2016 200.345 36.2511C208.01 36.3365 216.87 36.8639 223.846 39.428C230.821 41.992 235.914 46.6145 236.021 54.9333C236.143 64.3845 229.961 67.9655 222.717 70.6043C215.473 73.2432 207.19 74.8964 203.174 80.4926C202.823 80.9697 212.561 88.2524 222.798 95.7119C233.057 103.172 243.838 110.83 245.595 112.037C255.357 118.689 265.54 124.123 276.47 128.342C287.379 132.56 299.012 135.564 311.632 137.353C323.382 139.007 332.847 140.452 345.486 138.757C352.372 137.837 365.011 136.011 376.137 128.429C381.098 125.059 385.149 120.922 388.258 117.781C395.747 110.201 398.803 104.926 399.541 105.213C400.41 105.566 397.231 113.628 391.504 121.523C389.464 124.32 385.141 130.285 378.189 135.408C365.486 144.746 350.451 146.558 338.075 148.036C320.055 150.203 305.038 148.64 295.574 147.151C277.102 144.285 258.96 140.767 221.95 119.421C199.07 106.231 176.918 91.4765 152.623 82.3505C142.562 78.572 112.199 67.9975 86.3372 54.6603C60.4754 41.3231 39.0926 25.2232 46.9692 10.3935C55.924 -6.47718 68.7634 2.97818 81.6723 15.6785C94.5594 28.3786 107.538 44.2803 116.771 40.3022Z" stroke="#fff" stroke-width="2"/>
<path d="M390.266 276.688C393.75 276.707 396.62 277.441 398.833 278.912C401.046 280.383 402.757 282.047 403.901 283.883C405.045 285.74 405.775 287.682 406.047 289.708C406.319 291.757 406.353 293.455 406.172 294.805C405.368 298.48 403.6 303.131 400.848 308.755C398.095 314.38 394.904 320.569 391.274 327.343C387.644 334.117 383.663 341.325 379.353 348.966C375.044 356.608 370.931 364.12 366.993 371.458C363.077 378.819 359.532 385.985 356.402 392.936C353.25 399.909 350.995 406.103 349.593 411.539C348.415 415.996 348.532 418.48 349.988 418.967C351.444 419.454 354.107 418.358 358.019 415.657C364.838 411.23 372.055 405.39 379.651 398.159C387.268 390.927 394.823 383.195 402.337 374.983C409.851 366.771 417.082 358.47 424.009 350.059C430.936 341.648 437.097 334.017 442.469 327.165C447.841 320.313 452.293 314.611 455.802 310.057C459.311 305.525 461.371 303.054 461.961 302.665C462.748 302.082 463.86 301.805 465.319 301.813C466.778 301.821 468.126 302.176 469.386 302.858C470.645 303.54 471.598 304.482 472.288 305.64C472.957 306.797 472.906 308.256 472.112 310.015C471.518 311.166 469.672 314.227 466.531 319.153C463.39 324.078 459.198 330.218 453.91 337.571C448.622 344.924 442.48 353.035 435.442 361.924C428.403 370.814 420.819 379.896 412.734 389.172C404.626 398.448 396.084 407.481 387.108 416.251C378.132 425.043 369.053 432.898 359.891 439.838C358.339 440.809 356.045 442.299 353.029 444.308C350.013 446.338 346.453 448.257 342.371 450.064C338.289 451.893 333.904 453.306 329.239 454.369C324.573 455.411 320.021 455.625 315.56 455.013C312.058 454.406 309.3 453.041 307.286 450.896C305.251 448.751 303.873 445.934 303.108 442.424C302.343 438.936 302.169 434.906 302.586 430.336C303.003 425.787 303.814 420.87 304.996 415.651C300.704 420.091 295.432 424.57 289.201 429.109C282.97 433.647 276.481 437.684 269.776 441.24C263.05 444.797 256.545 447.766 250.216 450.17C243.888 452.575 238.503 453.852 234.038 454.002C227.047 454.159 221.043 453.147 216.003 450.985C210.963 448.824 206.863 445.949 203.681 442.338C200.5 438.728 198.192 434.687 196.758 430.215C195.323 425.743 194.629 421.276 194.653 416.812C194.687 410.606 195.706 403.469 197.688 395.423C199.67 387.377 202.59 379.053 206.404 370.429C210.24 361.827 215.034 353.295 220.807 344.878C226.579 336.46 233.307 328.636 241.034 321.405C248.738 314.174 257.352 307.906 266.897 302.624C276.441 297.341 287.044 293.653 298.705 291.583C305.899 290.272 312.302 289.915 317.917 290.534C323.554 291.152 328.424 292.486 332.594 294.533C336.763 296.603 340.189 299.278 342.893 302.603C345.597 305.928 347.603 309.423 348.955 313.11C351.309 308.659 353.421 304.795 355.289 301.495C357.158 298.217 358.675 295.699 359.838 293.942C362.96 288.537 366.204 284.613 369.505 282.192C372.807 279.793 375.886 278.155 378.7 277.299C381.513 276.444 383.954 276.109 385.978 276.316C388.089 276.567 389.504 276.683 390.266 276.688ZM256.95 429.412C260.239 429.234 264.47 427.95 269.644 425.561C274.796 423.172 280.149 419.892 285.703 415.741C291.256 411.591 296.661 406.764 301.939 401.262C307.217 395.76 311.713 389.818 315.428 383.436C318.386 376.07 321.563 368.619 325.023 361.06C328.461 353.501 331.854 346.246 335.18 339.274C336.388 333.467 336.5 328.895 335.538 325.601C334.576 322.308 333.196 319.775 331.355 318.001C329.514 316.249 327.451 315.127 325.102 314.613C322.775 314.121 320.925 313.872 319.575 313.864C316.093 313.649 311.904 315.129 307.03 318.303C302.157 321.478 296.994 325.783 291.521 331.175C286.048 336.589 280.592 342.765 275.11 349.725C269.628 356.685 264.646 363.844 260.142 371.18C255.638 378.537 251.809 385.745 248.679 392.805C245.526 399.865 243.598 406.126 242.893 411.544C242.188 416.984 242.84 421.343 244.868 424.664C246.919 427.985 250.939 429.575 256.95 429.412Z" stroke="#fff" stroke-width="2"/>
<path d="M526.042 207.835C529.135 207.656 531.81 208.302 534.044 209.773C536.258 211.244 537.946 213.148 539.109 215.484C540.25 217.82 540.737 220.393 540.526 223.2C540.314 226.008 539.516 228.573 538.154 230.896C529.741 244.242 520.62 259.587 510.814 276.889C501.007 294.212 491.107 312.733 481.113 332.494C492.166 334.1 503.57 335.338 515.302 336.165C527.035 337.013 538.01 336.964 548.206 336.061C558.402 335.159 567.297 333.117 574.892 329.957C582.487 326.798 587.74 322.014 590.693 315.628C592.455 311.958 594.645 309.531 597.286 308.391C599.906 307.251 602.28 307.112 604.431 307.995C606.56 308.877 608.163 310.498 609.217 312.833C610.271 315.169 610.213 317.891 609.02 320.976C605.468 329.493 600.4 336.412 593.773 341.71C587.146 347.009 579.698 351.149 571.429 354.109C563.16 357.069 554.308 359.024 544.896 359.931C535.484 360.859 526.163 361.135 516.932 360.802C507.701 360.468 499.038 359.746 490.878 358.612C482.74 357.501 475.648 356.352 469.644 355.143C468.059 358.444 466.56 361.681 465.084 364.874C463.607 368.067 462.087 371.303 460.523 374.604C462.421 381.996 464.463 390.74 466.651 400.834C468.817 410.949 470.564 422.021 471.848 434.048C473.133 446.097 473.847 458.817 473.97 472.21C474.093 485.603 473.147 499.294 471.133 513.241C468.105 533.411 464.135 550.526 459.203 564.566C454.27 578.606 448.872 590.14 443.009 599.123C437.146 608.106 431.076 615.063 424.843 619.993C418.61 624.902 412.668 628.463 407.016 630.675C401.364 632.865 396.284 634.1 391.709 634.38C387.157 634.639 383.608 634.576 381.084 634.17C373.317 632.973 366.54 629.91 360.752 625.044C354.965 620.156 350.339 613.925 346.874 606.328C343.432 598.732 341.236 590.096 340.309 580.38C339.404 570.663 339.939 560.388 341.937 549.533C344.335 536.938 348.092 522.935 353.228 507.524C358.364 492.113 364.419 475.989 371.392 459.151C378.386 442.291 385.905 425.217 393.948 407.884C401.991 390.551 410.139 373.763 418.394 357.498C411.641 349.883 405.827 345.888 400.996 345.47C397.905 345.257 396.541 343.834 396.947 341.224C397.353 338.613 398.719 335.746 401.065 332.666C403.412 329.565 406.193 326.728 409.409 324.132C412.624 321.537 415.396 320.246 417.726 320.258C418.118 320.26 419.901 320.662 423.098 321.442C426.295 322.243 430.406 323.137 435.452 324.122C441.329 312.7 446.983 302.018 452.373 292.052C457.762 282.087 462.623 273.229 466.933 265.479C471.243 257.75 474.872 251.259 477.818 246.027C480.765 240.795 482.722 237.322 483.689 235.585C486.241 230.939 489.463 226.928 493.358 223.553C497.252 220.177 501.296 217.39 505.489 215.17C509.682 212.972 513.611 211.295 517.297 210.139C520.983 208.983 523.906 208.215 526.042 207.835ZM454.224 507.357C456.267 488.14 456.278 470.197 454.235 453.484C452.192 436.771 448.965 421.62 444.575 408.008C436.905 424.864 429.585 441.504 422.614 457.972C415.621 474.439 409.438 490.127 404.022 505.036C398.606 519.944 394.066 533.769 390.404 546.466C386.742 559.162 384.264 570.211 382.95 579.611C381.636 589.011 381.704 596.48 383.111 602.019C384.539 607.557 387.68 610.623 392.533 611.237C403.196 612.472 411.941 609.993 418.769 603.825C425.597 597.656 431.216 589.368 435.65 579.027C440.083 568.665 443.674 557.143 446.465 544.442C449.235 531.74 451.828 519.364 454.224 507.357Z" stroke="#fff" stroke-width="2"/>
<path d="M723.638 278.508C727.122 278.527 729.993 279.261 732.206 280.732C734.419 282.203 736.13 283.868 737.274 285.703C738.418 287.56 739.148 289.502 739.42 291.529C739.692 293.577 739.726 295.276 739.544 296.625C738.74 300.301 736.973 304.951 734.22 310.576C731.468 316.201 728.276 322.389 724.646 329.163C721.016 335.937 717.036 343.145 712.726 350.787C708.416 358.428 704.303 365.94 700.365 373.279C696.449 380.639 692.904 387.806 689.774 394.757C686.622 401.729 684.367 407.923 682.966 413.359C681.787 417.817 681.904 420.3 683.361 420.787C684.817 421.274 687.479 420.178 691.392 417.477C698.21 413.051 705.428 407.211 713.024 399.979C720.641 392.748 728.196 385.015 735.71 376.803C743.223 368.591 750.455 360.291 757.382 351.88C764.309 343.469 770.469 335.837 775.842 328.986C781.214 322.134 785.666 316.431 789.175 311.878C792.683 307.346 794.744 304.874 795.334 304.486C796.121 303.902 797.233 303.625 798.692 303.633C800.151 303.641 801.499 303.997 802.758 304.679C804.017 305.361 804.97 306.302 805.661 307.46C806.33 308.618 806.278 310.076 805.485 311.836C804.89 312.987 803.045 316.047 799.904 320.973C796.763 325.899 792.57 332.038 787.282 339.391C781.994 346.744 775.853 354.855 768.814 363.744C761.776 372.634 754.192 381.717 746.106 390.992C737.998 400.268 729.457 409.302 720.481 418.072C711.505 426.864 702.425 434.719 693.263 441.658C691.712 442.63 689.417 444.12 686.401 446.128C683.385 448.159 679.825 450.078 675.744 451.884C671.662 453.713 667.277 455.126 662.611 456.19C657.946 457.231 653.393 457.446 648.933 456.833C645.43 456.226 642.672 454.861 640.659 452.716C638.623 450.571 637.245 447.755 636.48 444.245C635.716 440.756 635.542 436.727 635.959 432.156C636.375 427.607 637.186 422.691 638.369 417.471C634.076 421.912 628.804 426.39 622.573 430.929C616.343 435.468 609.853 439.504 603.149 443.061C596.422 446.617 589.917 449.587 583.589 451.991C577.261 454.395 571.876 455.672 567.411 455.822C560.42 455.98 554.415 454.967 549.375 452.806C544.335 450.644 540.235 447.769 537.054 444.159C533.873 440.549 531.565 436.507 530.13 432.036C528.696 427.564 528.002 423.096 528.026 418.632C528.06 412.426 529.079 405.29 531.061 397.243C533.043 389.197 535.962 380.873 539.777 372.249C543.613 363.647 548.406 355.115 554.179 346.698C559.952 338.281 566.68 330.456 574.406 323.226C582.111 315.995 590.724 309.727 600.269 304.444C609.814 299.161 620.417 295.474 632.078 293.403C639.271 292.092 645.675 291.736 651.29 292.354C656.926 292.973 661.797 294.306 665.966 296.354C670.136 298.424 673.562 301.099 676.266 304.423C678.969 307.748 680.975 311.243 682.327 314.931C684.682 310.479 686.793 306.615 688.662 303.315C690.531 300.037 692.047 297.52 693.211 295.762C696.332 290.357 699.577 286.434 702.878 284.013C706.179 281.614 709.258 279.976 712.072 279.12C714.886 278.264 717.327 277.929 719.351 278.136C721.461 278.387 722.876 278.504 723.638 278.508ZM590.322 431.232C593.611 431.054 597.843 429.771 603.017 427.382C608.169 424.993 613.521 421.712 619.075 417.562C624.629 413.411 630.034 408.585 635.312 403.082C640.59 397.58 645.086 391.638 648.801 385.257C651.759 377.891 654.935 370.439 658.395 362.88C661.834 355.321 665.227 348.067 668.553 341.095C669.76 335.287 669.873 330.715 668.911 327.422C667.949 324.128 666.569 321.595 664.728 319.821C662.886 318.069 660.824 316.947 658.475 316.434C656.148 315.942 654.298 315.692 652.948 315.685C649.465 315.47 645.276 316.949 640.403 320.124C635.53 323.298 630.367 327.603 624.894 332.995C619.42 338.409 613.964 344.586 608.483 351.546C603.001 358.506 598.019 365.664 593.515 373C589.01 380.357 585.182 387.566 582.051 394.626C578.899 401.686 576.97 407.946 576.266 413.365C575.561 418.805 576.212 423.163 578.241 426.484C580.291 429.805 584.311 431.395 590.322 431.232Z" stroke="#fff" stroke-width="2"/>
<path d="M798.008 257.661C802.081 257.487 805.429 258.377 808.031 260.329C810.634 262.281 811.923 265.489 811.899 269.953C811.887 272.087 811.152 275.088 809.672 278.978C808.192 282.846 806.668 286.735 805.101 290.603C802.942 295.055 800.674 299.79 798.316 304.829C799.654 306.97 803.046 308.012 808.49 307.933C813.913 307.875 820.144 307.278 827.14 306.14C834.136 305.002 841.328 303.801 848.696 302.469C856.085 301.159 862.383 300.323 867.632 299.959C871.705 299.786 874.815 300.63 876.938 302.492C879.062 304.355 880.509 306.649 881.278 309.354C882.047 312.08 882.162 314.933 881.667 317.935C881.171 320.938 880.221 323.415 878.861 325.345C878.07 326.495 876.114 329.838 872.992 335.352C869.848 340.866 866.284 347.553 862.256 355.392C858.228 363.231 854.198 371.614 850.186 380.52C846.152 389.426 842.95 397.705 840.578 405.357C838.206 413.009 837.06 419.558 837.117 425.002C837.175 430.446 839.357 433.463 843.622 434.074C845.95 434.479 849.944 432.759 855.583 428.892C861.244 425.046 867.805 419.834 875.332 413.277C882.837 406.72 890.783 399.099 899.192 390.413C907.579 381.727 915.75 372.843 923.661 363.763C931.571 354.682 938.806 345.706 945.344 336.792C951.903 327.9 957.043 319.871 960.762 312.706C961.752 310.773 963.262 309.475 965.291 308.789C967.341 308.125 969.367 308.093 971.41 308.67C973.454 309.247 975.08 310.541 976.333 312.486C977.585 314.431 977.919 317.154 977.312 320.635C977.11 321.614 975.505 324.545 972.451 329.493C969.419 334.42 965.357 340.56 960.265 347.914C955.173 355.268 949.118 363.423 942.079 372.421C935.04 381.419 927.478 390.437 919.372 399.516C911.265 408.596 902.725 417.281 893.752 425.572C884.779 433.863 875.703 440.956 866.547 446.829C857.391 452.702 848.287 457.007 839.257 459.789C830.205 462.549 821.515 462.937 813.185 460.953C805.226 458.972 799.191 455.738 795.034 451.251C790.878 446.764 788.25 441.415 787.108 435.203C785.988 428.991 786.025 422.197 787.22 414.821C788.414 407.446 790.262 400.096 792.719 392.728C795.176 385.359 798.09 378.146 801.417 371.087C804.743 364.028 808.001 357.687 811.123 352.064C814.246 346.463 816.95 341.862 819.212 338.281C821.453 334.7 822.88 332.531 823.472 331.75C825.621 329.04 825.872 327.016 824.224 325.635C822.577 324.276 820.4 324.068 817.673 325.011C814.749 326.15 810.715 327.107 805.572 327.863C800.429 328.619 795.27 328.286 790.139 326.908C785.007 325.53 780.494 322.587 776.642 318.102C772.791 313.617 770.782 306.725 770.636 297.404C770.456 294.486 770.912 290.808 772.003 286.35C773.095 281.892 774.817 277.59 777.169 273.422C779.522 269.254 782.395 265.633 785.808 262.559C789.309 259.465 793.347 257.832 798.008 257.661Z" stroke="#fff" stroke-width="2"/>
<path d="M985.554 302.346C989.059 302.561 991.951 303.361 994.273 304.723C996.596 306.086 998.329 307.75 999.494 309.695C1000.64 311.639 1001.37 313.625 1001.64 315.673C1001.91 317.721 1001.97 319.42 1001.76 320.769C1000.58 326.011 997.625 333.028 992.917 341.821C988.209 350.636 983.018 360.015 977.324 369.979C971.63 379.943 966.196 390.061 961.001 400.31C955.806 410.582 952.119 419.773 949.941 427.905C948.741 432.362 949.359 434.696 951.797 434.905C954.213 435.114 957.377 433.955 961.288 431.473C967.91 427.045 975.608 421.12 984.38 413.699C993.153 406.278 1002.12 398.27 1011.3 389.675C1020.47 381.102 1029.48 372.441 1038.37 363.758C1047.26 355.075 1055.21 347.105 1062.24 339.87C1069.27 332.635 1075.07 326.657 1079.67 321.913C1084.25 317.191 1086.85 314.636 1087.42 314.247C1088.21 313.663 1089.32 313.386 1090.78 313.394C1092.24 313.402 1093.59 313.758 1094.84 314.44C1096.1 315.122 1097.06 316.063 1097.75 317.221C1098.42 318.401 1098.36 319.838 1097.57 321.597C1096.98 322.748 1094.54 325.914 1090.25 331.03C1085.95 336.145 1080.39 342.538 1073.55 350.166C1066.71 357.794 1058.81 366.287 1049.83 375.666C1040.85 385.024 1031.48 394.446 1021.71 403.908C1011.95 413.371 1001.99 422.571 991.861 431.552C981.708 440.534 972.061 448.473 962.9 455.413C961.544 456.385 959.293 457.875 956.168 459.883C953.043 461.913 949.505 463.832 945.51 465.639C941.515 467.468 937.196 468.947 932.53 470.076C927.864 471.205 923.202 471.484 918.546 470.871C911.365 469.851 906.966 465.908 905.371 458.996C903.754 452.106 903.952 443.659 905.945 433.675C907.937 423.69 911.241 412.799 915.879 400.978C920.494 389.158 925.368 377.839 930.48 367.001C935.591 356.163 940.434 346.478 945.053 337.967C949.651 329.456 953.038 323.356 955.192 319.687C958.334 314.457 961.556 310.598 964.858 308.09C968.16 305.582 971.239 303.901 974.053 303.045C976.867 302.189 979.308 301.854 981.332 302.061C983.377 302.247 984.792 302.341 985.554 302.346ZM989.61 253.46C991.371 249.964 993.478 246.97 995.909 244.458C998.34 241.945 1000.92 240.021 1003.65 238.686C1006.38 237.351 1009.19 236.582 1012.11 236.402C1015.03 236.222 1017.73 236.716 1020.25 237.905C1022.76 239.269 1024.84 241.175 1026.49 243.623C1028.13 246.071 1029.22 248.777 1029.8 251.785C1030.37 254.793 1030.39 258.06 1029.89 261.541C1029.4 265.044 1028.24 268.522 1026.48 271.996C1024.72 275.493 1022.62 278.486 1020.19 280.999C1017.73 283.511 1015.15 285.435 1012.45 286.771C1009.72 288.106 1006.9 288.874 1003.98 289.054C1001.06 289.234 998.346 288.741 995.848 287.551C990.81 284.998 987.677 280.429 986.451 273.803C985.224 267.22 986.284 260.432 989.61 253.46Z" stroke="#fff" stroke-width="2"/>
</svg>
