<svg xmlns="http://www.w3.org/2000/svg" xmlns:xlink="http://www.w3.org/1999/xlink"><symbol id="account" viewBox="0 0 14 17"><g fill="currentColor"><path d="M6.894 8.083A3.91 3.91 0 0 0 9.752 6.9a3.91 3.91 0 0 0 1.184-2.858c0-1.11-.398-2.071-1.184-2.857A3.912 3.912 0 0 0 6.894 0a3.91 3.91 0 0 0-2.857 1.184 3.91 3.91 0 0 0-1.184 2.857A3.91 3.91 0 0 0 4.037 6.9a3.912 3.912 0 0 0 2.857 1.184ZM13.966 12.903a9.99 9.99 0 0 0-.136-1.06 8.352 8.352 0 0 0-.26-1.066 5.262 5.262 0 0 0-.439-.994 3.751 3.751 0 0 0-.66-.861c-.262-.25-.58-.45-.95-.597a3.28 3.28 0 0 0-1.212-.22c-.171 0-.337.071-.657.28a88.68 88.68 0 0 1-.684.44 3.92 3.92 0 0 1-.886.39A3.516 3.516 0 0 1 7 9.392a3.52 3.52 0 0 1-1.083-.175 3.911 3.911 0 0 1-.885-.39 93.785 93.785 0 0 1-.685-.442c-.32-.208-.486-.278-.657-.278-.436 0-.844.073-1.212.22a2.911 2.911 0 0 0-.949.596c-.25.238-.472.528-.66.86-.183.321-.33.656-.439.995a8.377 8.377 0 0 0-.26 1.066 9.951 9.951 0 0 0-.136 1.06c-.023.322-.034.655-.034.992 0 .876.278 1.585.828 2.108.542.516 1.26.778 2.132.778h8.08c.873 0 1.59-.262 2.132-.778.55-.523.828-1.232.828-2.108 0-.339-.011-.672-.034-.992Z" fill="currentColor"/></g></symbol><symbol id="arrow-bottom-black" viewBox="0 0 15 9"><g fill="currentColor"><path d="m1 1 6.5 7L14 1" stroke="currentColor" fill="transparent"/></g></symbol><symbol id="arrow-bottom" viewBox="0 0 12 8"><g fill="currentColor"><path d="m1 1 5 6 5-6" stroke="currentColor" fill="transparent"/></g></symbol><symbol id="arrow-right" viewBox="0 0 10 15"><g fill="currentColor"><path d="m1 1 8 6.5L1 14" stroke="currentColor" fill="transparent"/></g></symbol><symbol id="arrow-top" viewBox="0 0 19 12"><g fill="currentColor"><path d="M1 10.5 9.5 2l8.5 8.5" stroke="currentColor" stroke-width="2" fill="transparent"/></g></symbol><symbol id="book" viewBox="0 0 14 17"><g fill="currentColor"><path d="M1.004 5.054H.471a.47.47 0 0 0 0 .942h.533v-.942ZM1.004 12.587H.471a.47.47 0 0 0 0 .942h.533v-.942ZM1.004 10.076H.471a.47.47 0 0 0 0 .942h.533v-.942ZM1.004 7.565H.471a.47.47 0 0 0 0 .942h.533v-.942ZM1.004 2.543H.471a.47.47 0 0 0 0 .941h.533v-.941ZM4.018 0h-1.6c-.78 0-1.413.634-1.413 1.413v1.13H2.48a.47.47 0 0 1 0 .941H1.005v1.57H2.48a.47.47 0 0 1 0 .942H1.005v1.569H2.48a.47.47 0 0 1 0 .942H1.005v1.57H2.48a.47.47 0 0 1 0 .94H1.005v1.57H2.48a.47.47 0 0 1 0 .942H1.005v1.13c0 .78.634 1.413 1.412 1.413h1.601V0ZM7.941 3.484h2.135v1.068H7.94V3.484Z" fill="currentColor"/><path d="M12.588 0H4.96v16.072h7.628c.779 0 1.412-.634 1.412-1.413V1.413C14 .633 13.367 0 12.588 0Zm-1.57 5.022c0 .26-.21.471-.47.471H7.47a.47.47 0 0 1-.47-.47v-2.01c0-.26.21-.47.47-.47h3.076c.26 0 .471.21.471.47v2.01Z" fill="currentColor"/></g></symbol><symbol id="box" viewBox="0 0 14 14"><g fill="currentColor"><path d="M13.087 2.715h-1.02c.135-.213.224-.452.25-.704A1.796 1.796 0 0 0 11.247.159a1.79 1.79 0 0 0-1.95.314L8.01 1.639a1.366 1.366 0 0 0-2.023.002L4.7.473A1.79 1.79 0 0 0 2.748.159a1.796 1.796 0 0 0-1.067 1.852c.025.252.114.491.248.704H.913A.913.913 0 0 0 0 3.628v1.37c0 .251.204.456.457.456h13.086A.457.457 0 0 0 14 4.997v-1.37a.913.913 0 0 0-.913-.912ZM5.63 2.562v.153H3.483a.9.9 0 0 1-.873-1.12A.896.896 0 0 1 3.104 1a.879.879 0 0 1 .983.149L5.63 2.548v.013Zm5.78-.673c-.034.475-.462.826-.938.826H8.37V2.546L9.89 1.17c.233-.212.56-.311.863-.221.434.13.69.499.657.941ZM.913 6.367v6.695c0 .505.409.914.913.914h4.261v-7.61H.913ZM7.913 6.367v7.609h4.26a.913.913 0 0 0 .914-.914V6.367H7.913Z" fill="currentColor"/></g></symbol><symbol id="cart-add" viewBox="0 0 14 14"><g fill="currentColor"><path d="M10.667 10.667a1.333 1.333 0 1 0 0 2.667 1.333 1.333 0 0 0 0-2.667ZM0 0v1.333h1.333l2.4 5.06-.906 1.634c-.1.186-.16.406-.16.64A1.333 1.333 0 0 0 4 10h8V8.667H4.28a.167.167 0 0 1-.167-.167c0-.033.007-.06.02-.08l.6-1.087H9.7c.5 0 .94-.28 1.167-.686l2.386-4.314a.843.843 0 0 0 .08-.333.667.667 0 0 0-.666-.667h-9.86L2.18 0H0Zm4 10.667a1.333 1.333 0 1 0 0 2.667 1.333 1.333 0 0 0 0-2.667Z" fill="currentColor"/><path d="M7.5 2.667v3M6 4.167h3" stroke="currentColor" stroke-width=".5" fill="transparent"/></g></symbol><symbol id="cart" viewBox="0 0 16 16"><g fill="currentColor"><path d="M12.8 12.8a1.6 1.6 0 1 0 0 3.2 1.6 1.6 0 0 0 0-3.2ZM0 0v1.6h1.6l2.88 6.072-1.088 1.96a1.63 1.63 0 0 0-.192.768A1.6 1.6 0 0 0 4.8 12h9.6v-1.6H5.136a.2.2 0 0 1-.2-.2.17.17 0 0 1 .024-.096L5.68 8.8h5.96c.6 0 1.128-.336 1.4-.824L15.904 2.8c.056-.128.096-.264.096-.4a.8.8 0 0 0-.8-.8H3.368L2.616 0H0Zm4.8 12.8a1.6 1.6 0 1 0 0 3.2 1.6 1.6 0 0 0 0-3.2Z" fill="currentColor"/></g></symbol><symbol id="check-circle" viewBox="0 0 20 20"><g fill="currentColor"><path d="M10 0C4.486 0 0 4.486 0 10s4.486 10 10 10 10-4.486 10-10S15.514 0 10 0Zm5.742 8.31L9.46 14.594a1.405 1.405 0 0 1-1 .415c-.378 0-.733-.147-1-.415l-3.202-3.201a1.405 1.405 0 0 1-.414-1c0-.378.147-.733.414-1a1.405 1.405 0 0 1 1-.415c.378 0 .733.147 1 .415l2.202 2.201 5.282-5.282a1.405 1.405 0 0 1 1-.414 1.416 1.416 0 0 1 1 2.414Z" fill="currentColor"/></g></symbol><symbol id="check" viewBox="0 0 16 16"><g fill="currentColor"><path d="M6.075 9.89 3.551 7.86a1.455 1.455 0 1 0-1.784 2.298L6.5 13.702l7.698-8.319a1.446 1.446 0 0 0-2.122-1.965l-6 6.472Z" fill="currentColor"/></g></symbol><symbol id="cross" viewBox="0 0 16 16"><g fill="currentColor"><path d="M7.999 0A8 8 0 0 0 0 8a8 8 0 1 0 7.999-8Zm3.44 10.166-1.275 1.273S8.148 9.276 7.998 9.276c-.148 0-2.164 2.163-2.164 2.163l-1.275-1.273S6.724 8.18 6.724 8.003c0-.18-2.165-2.167-2.165-2.167l1.275-1.275s2.032 2.164 2.164 2.164c.133 0 2.166-2.164 2.166-2.164l1.274 1.275S9.273 7.852 9.273 8.003c0 .144 2.165 2.163 2.165 2.163Z" fill="currentColor"/></g></symbol><symbol id="facebook" viewBox="0 0 8 15"><g fill="currentColor"><path fill-rule="evenodd" clip-rule="evenodd" d="M4.744 15V8.622h2.178l.311-2.49H4.744V4.579c0-.7.233-1.244 1.244-1.244H7.31V1.078C7 1.078 6.222 1 5.367 1a3 3 0 0 0-3.189 3.267v1.866H0v2.489h2.178V15h2.566Z" fill="currentColor"/></g></symbol><symbol id="heart-stroke" viewBox="0 0 18 16"><g fill="currentColor"><path d="M15.73 2.393A4.302 4.302 0 0 0 12.53 1c-.923 0-1.769.292-2.514.868-.375.29-.716.646-1.016 1.061a5.14 5.14 0 0 0-1.016-1.061A4.025 4.025 0 0 0 5.47 1a4.303 4.303 0 0 0-3.2 1.393C1.45 3.281 1 4.493 1 5.808c0 1.354.504 2.592 1.587 3.899.968 1.168 2.36 2.354 3.972 3.728.55.47 1.175 1.001 1.822 1.567a.938.938 0 0 0 1.237 0c.648-.566 1.272-1.098 1.823-1.567 1.612-1.374 3.004-2.56 3.972-3.728C16.496 8.4 17 7.162 17 5.808c0-1.314-.45-2.527-1.27-3.415Z" stroke="currentColor" fill="transparent"/></g></symbol><symbol id="heart" viewBox="0 0 16 15"><g fill="currentColor"><path d="M14.73 1.393A4.302 4.302 0 0 0 11.53 0c-.923 0-1.769.292-2.514.868-.375.29-.716.646-1.016 1.061A5.14 5.14 0 0 0 6.984.868 4.025 4.025 0 0 0 4.47 0a4.303 4.303 0 0 0-3.2 1.393C.45 2.281 0 3.493 0 4.808 0 6.162.504 7.4 1.587 8.707c.968 1.168 2.36 2.354 3.972 3.728.55.47 1.175 1.001 1.822 1.567a.938.938 0 0 0 1.237 0c.648-.566 1.272-1.098 1.823-1.567 1.612-1.374 3.004-2.56 3.972-3.728C15.496 7.4 16 6.162 16 4.808c0-1.314-.45-2.527-1.27-3.415Z" fill="currentColor"/></g></symbol><symbol id="insta" viewBox="0 0 16 16"><g fill="currentColor"><path fill-rule="evenodd" clip-rule="evenodd" d="M8 2.244c.934-.035 1.87-.009 2.8.078.451-.006.9.073 1.322.233.582.271 1.05.74 1.322 1.322.16.422.24.871.234 1.323 0 .7.078.933.078 2.8.035.934.009 1.87-.078 2.8.006.451-.073.9-.233 1.322a2.732 2.732 0 0 1-1.322 1.322c-.422.16-.87.239-1.322.233-.7 0-.933.078-2.8.078a21.47 21.47 0 0 1-2.8-.078c-.451.006-.9-.073-1.322-.233a2.732 2.732 0 0 1-1.322-1.322c-.16-.422-.24-.87-.235-1.322 0-.7-.078-.933-.078-2.8-.035-.934-.009-1.87.078-2.8-.006-.451.073-.9.233-1.322.136-.289.32-.552.545-.778.183-.272.46-.466.778-.544.422-.16.87-.24 1.322-.234.93-.087 1.866-.113 2.8-.078ZM8 1a22.981 22.981 0 0 0-2.878.078 4.8 4.8 0 0 0-1.711.31 3.045 3.045 0 0 0-1.244.779 3.045 3.045 0 0 0-.778 1.244 3.544 3.544 0 0 0-.311 1.71A22.981 22.981 0 0 0 1 8c-.034.96-.008 1.921.078 2.878a4.8 4.8 0 0 0 .311 1.71c.154.473.421.9.778 1.245.345.357.772.624 1.244.778a4.799 4.799 0 0 0 1.711.31c.957.087 1.918.113 2.878.079.96.034 1.921.008 2.878-.078a4.799 4.799 0 0 0 1.711-.311 3.264 3.264 0 0 0 2.022-2.022 4.799 4.799 0 0 0 .311-1.711C14.922 10.1 15 9.867 15 8c.034-.96.008-1.921-.078-2.878a4.799 4.799 0 0 0-.311-1.711 3.046 3.046 0 0 0-.778-1.244 3.045 3.045 0 0 0-1.244-.778 4.8 4.8 0 0 0-1.711-.311A22.981 22.981 0 0 0 8 1Zm0 3.422A3.52 3.52 0 0 0 4.422 8 3.578 3.578 0 1 0 8 4.422Zm0 5.91A2.29 2.29 0 0 1 5.667 8 2.292 2.292 0 0 1 8 5.667 2.292 2.292 0 0 1 10.333 8 2.29 2.29 0 0 1 8 10.333Zm3.733-6.921a.856.856 0 1 0 .856.856.863.863 0 0 0-.856-.856Z" fill="currentColor"/></g></symbol><symbol id="logo" viewBox="0 0 70 41"><g fill="currentColor"><path d="M9.675 6.607c-.58-.29-4.184 2.408-4.488 2.676-1.333 1.179-3.142 2.939-1.608 4.283 1.561 1.369 4.11 1.828 6.023 2.906 2.001 1.127.234 3.229-.697 4.458-2.34 3.094-4.376 6.391-6.115 9.623-.465.863-3.807 9.728-2.481 9.796-.78-.04 2.653-7.722 2.964-8.223 2.197-3.533 5.262-6.851 8.414-10.11 1.273-1.316 2.585-3.006 2.198-4.57-.397-1.604-2.958-2.435-5.104-3.176-2.833-.98-4.385-1.522-2.9-3.541.325-.441 4.073-3.982 3.794-4.122ZM7.19 2.472c.08-.035.122-.195.166-.367.045-.173.092-.355.183-.434.246-.216.464-.298.694-.306.23-.009.472.055.763.13.308.08.567.222.833.358.266.136.54.27.878.333.33.06.623.06.915.043.293-.016.584-.046.908-.045.49.003 1.056.033 1.503.195.446.161.773.455.783.986.01.604-.383.835-.845 1.006-.462.172-.99.28-1.245.64-.022.03.602.492 1.26.965.657.473 1.349.958 1.461 1.035a9.663 9.663 0 0 0 4.229 1.594c.751.102 1.357.191 2.164.078.44-.06 1.246-.182 1.955-.67.315-.217.573-.483.77-.685.476-.487.67-.825.717-.807.056.022-.145.539-.508 1.045-.13.18-.403.562-.846.892-.808.601-1.768.722-2.559.82-1.15.146-2.11.051-2.716-.04-1.181-.178-2.341-.396-4.714-1.747-1.466-.835-2.887-1.77-4.443-2.345-.644-.238-2.588-.903-4.245-1.746S2.222 1.536 2.721.585C3.286-.495 4.11.104 4.94.911c.827.807 1.662 1.819 2.25 1.561ZM24.75 17.481c.222 0 .405.046.547.14.142.093.252.198.326.315a.948.948 0 0 1 .139.372c.018.13.02.239.01.325-.05.235-.162.533-.336.893-.174.36-.375.757-.605 1.192-.23.434-.481.896-.754 1.385-.273.49-.533.972-.782 1.442-.248.472-.472.93-.67 1.376-.198.447-.34.843-.428 1.191-.073.285-.065.444.028.475.093.03.263-.04.512-.215.434-.285.893-.66 1.376-1.125.484-.465.964-.962 1.442-1.49.477-.527.936-1.06 1.376-1.6.44-.54.83-1.029 1.171-1.469.341-.44.624-.805.846-1.098.223-.29.354-.449.391-.474a.35.35 0 0 1 .215-.056c.093 0 .18.023.26.066.08.043.142.103.186.176.043.074.04.168-.01.28-.037.074-.154.27-.353.586-.199.316-.465.71-.8 1.181-.335.472-.725.992-1.172 1.563-.446.57-.928 1.153-1.441 1.749a30.333 30.333 0 0 1-1.628 1.74c-.57.564-1.148 1.07-1.73 1.516-.1.062-.246.158-.438.288-.192.13-.419.254-.679.371-.26.119-.54.21-.837.28a2.45 2.45 0 0 1-.874.046.913.913 0 0 1-.53-.26 1.108 1.108 0 0 1-.27-.54 2.547 2.547 0 0 1-.038-.773c.025-.29.075-.605.149-.939a7.739 7.739 0 0 1-1.005.866c-.396.292-.81.552-1.236.782-.43.23-.844.421-1.247.577-.404.156-.747.24-1.033.25-.446.013-.83-.05-1.153-.186a2.167 2.167 0 0 1-.79-.548 2.159 2.159 0 0 1-.447-.772 2.74 2.74 0 0 1-.14-.856c0-.396.063-.853.187-1.368a9.7 9.7 0 0 1 .548-1.6c.242-.55.546-1.098.912-1.637a9.092 9.092 0 0 1 1.284-1.507 8.217 8.217 0 0 1 1.646-1.21 6.516 6.516 0 0 1 2.029-.716 4.29 4.29 0 0 1 1.227-.074c.36.038.672.121.94.25.266.131.486.301.66.513.174.211.303.434.391.669.149-.285.282-.533.4-.745a9.05 9.05 0 0 1 .289-.484c.197-.346.403-.598.613-.754.21-.154.407-.26.586-.316.18-.055.336-.078.465-.065.135.015.225.022.274.022Zm-8.466 9.805c.21-.012.48-.096.81-.25.328-.155.669-.366 1.022-.633a8.478 8.478 0 0 0 1.033-.931c.335-.353.62-.735.855-1.144.187-.471.387-.949.606-1.433.217-.484.431-.949.641-1.395.075-.372.08-.664.018-.874a1.079 1.079 0 0 0-.27-.485.826.826 0 0 0-.4-.214 1.868 1.868 0 0 0-.354-.046c-.223-.012-.49.084-.8.288-.31.205-.639.482-.986.828a14.325 14.325 0 0 0-1.991 2.567c-.286.472-.528.934-.726 1.386-.199.452-.32.853-.363 1.2-.043.348 0 .626.131.837.132.212.39.312.774.3Z" fill="currentColor"/><path d="M33.4 13.034a.82.82 0 0 1 .513.121.93.93 0 0 1 .326.364.943.943 0 0 1 .093.492c-.013.18-.063.344-.15.493-.532.855-1.11 1.839-1.73 2.948a85.969 85.969 0 0 0-1.878 3.563c.706.1 1.435.174 2.185.223.75.05 1.452.043 2.103-.018.651-.061 1.219-.195 1.703-.4.484-.204.818-.512 1.005-.92.11-.236.25-.391.418-.465.167-.074.319-.084.457-.028.136.056.239.159.307.307.068.15.066.323-.01.52a3.27 3.27 0 0 1-.967 1.331c-.421.34-.896.608-1.423.8a7.008 7.008 0 0 1-1.693.381c-.601.063-1.197.084-1.787.066a16.41 16.41 0 0 1-1.665-.131c-.52-.068-.974-.14-1.358-.214-.1.211-.195.418-.288.623l-.288.623c.123.472.257 1.03.4 1.674.142.646.258 1.353.344 2.12.086.77.136 1.583.149 2.438.012.856-.043 1.731-.167 2.623-.187 1.29-.434 2.385-.745 3.284-.31.899-.65 1.638-1.022 2.214-.372.576-.757 1.022-1.154 1.34-.396.315-.775.545-1.135.688a3.293 3.293 0 0 1-1.656.233 2.594 2.594 0 0 1-1.302-.576 3.363 3.363 0 0 1-.893-1.191 5.185 5.185 0 0 1-.43-1.656 7.19 7.19 0 0 1 .094-1.972c.149-.805.384-1.702.707-2.688.323-.986.704-2.019 1.144-3.097.44-1.08.915-2.174 1.423-3.284.508-1.11 1.023-2.186 1.545-3.228-.434-.484-.807-.738-1.116-.763-.198-.012-.286-.102-.26-.27.024-.166.11-.35.26-.548a3.13 3.13 0 0 1 .53-.548c.204-.167.381-.25.53-.25.025 0 .14.025.344.073.204.05.467.106.79.167.371-.731.729-1.416 1.07-2.055a164.608 164.608 0 0 1 1.61-2.95l.371-.669c.162-.297.366-.555.614-.772.248-.217.505-.397.772-.54a4.81 4.81 0 0 1 1.31-.476Zm-4.484 19.164c.124-1.229.119-2.375-.018-3.442a15.658 15.658 0 0 0-.633-2.903c-.484 1.08-.946 2.146-1.386 3.2a61.007 61.007 0 0 0-1.171 3.014c-.341.955-.626 1.84-.856 2.652-.23.813-.384 1.52-.465 2.12-.08.602-.073 1.08.018 1.433.094.353.295.548.606.585.681.075 1.24-.086 1.674-.482.434-.397.79-.928 1.07-1.59.28-.664.505-1.402.678-2.215.173-.812.334-1.604.483-2.372Z" fill="currentColor"/><path d="M46.051 17.481c.223 0 .407.046.549.14.142.093.252.198.325.315a.948.948 0 0 1 .14.372c.018.13.02.239.01.325-.05.235-.162.533-.336.893-.174.36-.376.757-.605 1.192-.23.434-.482.896-.755 1.385-.272.49-.532.972-.782 1.442-.247.472-.471.93-.669 1.376a7.45 7.45 0 0 0-.428 1.191c-.074.285-.066.444.028.475.093.03.263-.04.511-.215.435-.285.894-.66 1.377-1.125.484-.465.964-.962 1.441-1.49.477-.527.937-1.06 1.376-1.6.44-.54.83-1.029 1.172-1.469.34-.44.623-.805.846-1.098.222-.29.353-.449.39-.474a.35.35 0 0 1 .215-.056c.093 0 .18.023.26.066.08.043.142.103.187.176.043.074.04.168-.01.28-.038.074-.154.27-.353.586-.2.316-.465.71-.8 1.181-.336.472-.726.992-1.172 1.563-.447.57-.928 1.153-1.442 1.749a30.298 30.298 0 0 1-1.628 1.74c-.57.564-1.148 1.07-1.73 1.516-.1.062-.245.158-.437.288-.192.13-.42.254-.68.371-.26.119-.54.21-.837.28a2.45 2.45 0 0 1-.874.046.913.913 0 0 1-.53-.26 1.108 1.108 0 0 1-.27-.54 2.544 2.544 0 0 1-.037-.773c.025-.29.075-.605.148-.939a7.739 7.739 0 0 1-1.004.866c-.397.292-.81.552-1.237.782-.429.23-.843.421-1.247.577-.403.156-.747.24-1.032.25-.447.013-.83-.05-1.154-.186a2.166 2.166 0 0 1-.79-.548 2.159 2.159 0 0 1-.447-.772 2.74 2.74 0 0 1-.139-.856c0-.396.063-.853.187-1.368a9.7 9.7 0 0 1 .548-1.6c.242-.55.545-1.098.911-1.637a9.097 9.097 0 0 1 1.285-1.507 8.222 8.222 0 0 1 1.646-1.21 6.517 6.517 0 0 1 2.028-.716 4.29 4.29 0 0 1 1.227-.074c.36.038.672.121.94.25.267.131.487.301.66.513.175.211.304.434.392.669.148-.285.282-.533.4-.745.118-.21.214-.371.288-.484.198-.346.404-.598.614-.754.21-.154.406-.26.586-.316.18-.055.335-.078.464-.065.135.015.226.022.274.022Zm-8.465 9.805c.21-.012.48-.096.81-.25a5.84 5.84 0 0 0 1.023-.633 8.47 8.47 0 0 0 1.032-.931c.335-.353.62-.735.856-1.144.186-.471.387-.949.605-1.433.217-.484.431-.949.642-1.395.075-.372.08-.664.018-.874a1.078 1.078 0 0 0-.27-.485.826.826 0 0 0-.401-.214 1.868 1.868 0 0 0-.354-.046c-.222-.012-.49.084-.8.288-.31.205-.638.482-.986.828a14.343 14.343 0 0 0-1.991 2.567c-.285.472-.528.934-.725 1.386-.2.452-.32.853-.363 1.2-.043.348 0 .626.13.837.133.212.39.312.774.3Z" fill="currentColor"/><path d="M50.796 16.123c.26-.012.475.043.642.167.167.124.25.329.25.614 0 .136-.046.328-.14.577-.092.248-.188.497-.287.745-.136.285-.28.588-.429.911.087.136.304.202.651.195a8.058 8.058 0 0 0 1.192-.121c.446-.075.905-.155 1.376-.242a11.75 11.75 0 0 1 1.209-.167c.26-.013.459.04.595.158.137.118.23.265.28.437.05.174.059.356.028.548-.03.192-.09.351-.177.475-.05.074-.174.288-.371.641a34.34 34.34 0 0 0-.68 1.285 34.76 34.76 0 0 0-.762 1.61c-.255.57-.456 1.1-.605 1.59-.149.49-.22.908-.214 1.256.005.348.146.54.418.578.15.025.404-.087.763-.336.36-.247.778-.583 1.256-1.004.478-.422.983-.912 1.517-1.47a45.077 45.077 0 0 0 1.554-1.711c.502-.583.962-1.16 1.376-1.73.416-.571.742-1.086.977-1.545a.49.49 0 0 1 .288-.252.658.658 0 0 1 .391-.01c.13.036.235.118.316.242.08.124.103.298.065.52-.012.063-.114.251-.307.568-.192.316-.45.71-.772 1.181-.323.472-.707.995-1.154 1.573a34.815 34.815 0 0 1-1.441 1.74 24.29 24.29 0 0 1-1.628 1.673c-.57.533-1.148.99-1.731 1.368a7.126 7.126 0 0 1-1.74.837c-.577.18-1.132.208-1.665.084-.51-.124-.896-.329-1.163-.614a2.01 2.01 0 0 1-.512-1.023 3.856 3.856 0 0 1 0-1.302c.074-.471.189-.942.343-1.413.155-.472.338-.934.549-1.386a20.537 20.537 0 0 1 1.125-2.103 7.85 7.85 0 0 1 .27-.419c.137-.174.152-.303.046-.39-.106-.087-.245-.1-.419-.038a3.687 3.687 0 0 1-.772.186c-.328.05-.658.03-.986-.055a1.714 1.714 0 0 1-.866-.558c-.248-.286-.378-.725-.39-1.32a2.445 2.445 0 0 1 .083-.708c.068-.285.176-.56.325-.828.15-.267.331-.499.548-.697.223-.199.48-.304.778-.317Z" fill="currentColor"/><path d="M62.796 18.913c.224.012.409.063.558.149.148.086.26.192.335.316.074.123.121.25.14.38.017.132.021.24.009.326-.074.336-.26.785-.558 1.349a72.26 72.26 0 0 1-.987 1.804c-.36.64-.704 1.288-1.032 1.944-.328.658-.56 1.247-.697 1.767-.075.286-.035.434.12.447.155.012.357-.063.606-.223.422-.285.912-.666 1.47-1.143a45.394 45.394 0 0 0 1.71-1.545c.584-.55 1.157-1.107 1.722-1.665s1.07-1.07 1.517-1.535l1.107-1.154c.291-.303.457-.467.493-.492a.35.35 0 0 1 .214-.056c.093 0 .18.023.26.066.081.043.142.103.187.176.043.075.04.167-.01.28-.038.074-.192.277-.465.605a51.84 51.84 0 0 1-1.06 1.229 68.563 68.563 0 0 1-3.293 3.452c-.621.608-1.254 1.2-1.898 1.777A31.67 31.67 0 0 1 61.4 28.7c-.086.063-.23.16-.428.288-.199.131-.425.255-.68.372-.254.118-.53.214-.827.288a2.422 2.422 0 0 1-.893.056c-.46-.063-.742-.313-.846-.754-.106-.44-.096-.98.028-1.619.123-.638.33-1.335.623-2.092a37.068 37.068 0 0 1 1.842-4.037c.291-.545.505-.936.642-1.171.199-.336.403-.583.613-.745.21-.161.407-.27.586-.325.18-.056.335-.078.465-.066.13.011.221.017.27.017Zm.242-3.125c.111-.224.245-.416.4-.578a1.78 1.78 0 0 1 .492-.371c.174-.086.353-.136.54-.149.186-.012.359.018.52.093.161.087.295.208.4.363.106.156.177.329.215.52.037.193.04.401.01.624-.031.224-.103.447-.215.67a2.322 2.322 0 0 1-.399.577c-.156.161-.32.285-.493.371a1.419 1.419 0 0 1-.54.15 1.04 1.04 0 0 1-.52-.094c-.323-.161-.524-.452-.605-.875-.08-.42-.015-.854.195-1.301Z" fill="currentColor"/></g></symbol><symbol id="logout" viewBox="0 0 16 16"><g fill="currentColor"><path d="M11.207 3.48V.782A.784.784 0 0 0 10.426 0H.782A.784.784 0 0 0 0 .782V11.833c0 .287.17.56.417.69L6.36 15.6c.26.13.573-.052.573-.351V12.25h3.493c.43 0 .781-.352.781-.782V7.194H9.644v3.101c0 .222-.17.391-.391.391H6.946V4.053c0-.287-.17-.56-.417-.69L3.023 1.563h6.23c.221 0 .39.17.39.39v1.539h1.564V3.48Z" fill="currentColor"/><path d="m13.215 2.202 2.541 2.542a.78.78 0 0 1 0 1.133L13.215 8.42c-.326.325-.821.338-1.147.013-.313-.313-.274-.834.026-1.147l1.147-1.134H8.797a.771.771 0 0 1-.586-.26c-.365-.392-.274-1.082.195-1.343a.835.835 0 0 1 .391-.104h4.444S12.107 3.31 12.094 3.31c-.3-.3-.339-.834-.026-1.134.313-.312.821-.3 1.147.026Z" fill="currentColor"/></g></symbol><symbol id="minus" viewBox="0 0 24 24"><g fill="currentColor"><path d="M20 12H4" stroke="currentColor" stroke-width="2" stroke-linecap="round" stroke-linejoin="round" fill="transparent"/></g></symbol><symbol id="plus" viewBox="0 0 24 24"><g fill="currentColor"><path d="M20 12H4" stroke="currentColor" stroke-width="2" stroke-linecap="round" stroke-linejoin="round" fill="transparent"/><path d="M12 4v16" stroke="currentColor" stroke-width="2" stroke-linecap="round" stroke-linejoin="round" fill="transparent"/></g></symbol><symbol id="safari" viewBox="0 0 1100 639"><g fill="currentColor"><path d="M155.286 105.23c-9.034-4.601-65.683 37.313-70.453 41.489-20.96 18.33-49.418 45.72-25.537 66.886 24.314 21.56 64.166 28.963 94.015 46.002 31.216 17.809 3.382 50.538-11.291 69.708-36.889 48.205-69.028 99.637-96.522 150.072C38.15 492.848-14.91 631.29 5.836 632.47c-12.19-.698 42.184-120.624 47.083-128.436 34.684-55.099 82.938-106.77 132.537-157.497 20.036-20.491 40.714-46.813 34.794-71.343-6.068-25.118-46.085-38.337-79.598-50.126-44.25-15.572-68.505-24.197-45.098-55.665 5.133-6.875 64.097-61.972 59.732-64.173ZM116.771 40.302c1.244-.537 1.911-3.038 2.622-5.734.712-2.696 1.468-5.545 2.89-6.778 3.872-3.354 7.298-4.62 10.892-4.732 3.593-.11 7.377.912 11.921 2.113 4.827 1.267 8.865 3.51 13.013 5.667 4.147 2.157 8.425 4.27 13.711 5.28 5.156.985 9.75.989 14.324.752 4.574-.214 9.128-.668 14.201-.619 7.665.086 16.525.613 23.501 3.177 6.975 2.564 12.068 7.187 12.175 15.505.122 9.452-6.06 13.033-13.304 15.671-7.244 2.64-15.527 4.292-19.543 9.889-.351.477 9.387 7.76 19.624 15.219 10.259 7.46 21.04 15.118 22.797 16.325 9.762 6.652 19.945 12.086 30.875 16.305 10.909 4.218 22.542 7.222 35.162 9.011 11.75 1.654 21.215 3.099 33.854 1.404 6.886-.92 19.525-2.746 30.651-10.328 4.961-3.37 9.012-7.507 12.121-10.648 7.489-7.58 10.545-12.855 11.283-12.568.869.353-2.31 8.415-8.037 16.31-2.04 2.797-6.363 8.762-13.315 13.885-12.703 9.338-27.738 11.15-40.114 12.628-18.02 2.167-33.037.604-42.501-.885-18.472-2.866-36.614-6.384-73.624-27.73-22.88-13.19-45.032-27.945-69.327-37.07-10.061-3.779-40.424-14.353-66.286-27.69C60.475 41.322 39.093 25.222 46.97 10.392c8.955-16.87 21.794-7.415 34.703 5.285 12.887 12.7 25.866 28.602 35.099 24.624ZM390.266 276.688c3.484.019 6.354.753 8.567 2.224s3.924 3.135 5.068 4.971c1.144 1.857 1.874 3.799 2.146 5.825.272 2.049.306 3.747.125 5.097-.804 3.675-2.572 8.326-5.324 13.95-2.753 5.625-5.944 11.814-9.574 18.588-3.63 6.774-7.611 13.982-11.921 21.623a1228.206 1228.206 0 0 0-12.36 22.492c-3.916 7.361-7.461 14.527-10.591 21.478-3.152 6.973-5.407 13.167-6.809 18.603-1.178 4.457-1.061 6.941.395 7.428 1.456.487 4.119-.609 8.031-3.31 6.819-4.427 14.036-10.267 21.632-17.498 7.617-7.232 15.172-14.964 22.686-23.176a634.096 634.096 0 0 0 21.672-24.924c6.927-8.411 13.088-16.042 18.46-22.894 5.372-6.852 9.824-12.554 13.333-17.108 3.509-4.532 5.569-7.003 6.159-7.392.787-.583 1.899-.86 3.358-.852a8.5 8.5 0 0 1 4.067 1.045 7.442 7.442 0 0 1 2.902 2.782c.669 1.157.618 2.616-.176 4.375-.594 1.151-2.44 4.212-5.581 9.138-3.141 4.925-7.333 11.065-12.621 18.418s-11.43 15.464-18.468 24.353c-7.039 8.89-14.623 17.972-22.708 27.248a473.796 473.796 0 0 1-25.626 27.079c-8.976 8.792-18.055 16.647-27.217 23.587-1.552.971-3.846 2.461-6.862 4.47-3.016 2.03-6.576 3.949-10.658 5.756-4.082 1.829-8.467 3.242-13.132 4.305-4.666 1.042-9.218 1.256-13.679.644-3.502-.607-6.26-1.972-8.274-4.117-2.035-2.145-3.413-4.962-4.178-8.472-.765-3.488-.939-7.518-.522-12.088.417-4.549 1.228-9.466 2.41-14.685-4.292 4.44-9.564 8.919-15.795 13.458a161.484 161.484 0 0 1-19.425 12.131c-6.726 3.557-13.231 6.526-19.56 8.93-6.328 2.405-11.713 3.682-16.178 3.832-6.991.157-12.995-.855-18.035-3.017-5.04-2.161-9.14-5.036-12.322-8.647-3.181-3.61-5.489-7.651-6.923-12.123-1.435-4.472-2.129-8.939-2.105-13.403.034-6.206 1.053-13.343 3.035-21.389 1.982-8.046 4.902-16.37 8.716-24.994 3.836-8.602 8.63-17.134 14.403-25.551 5.772-8.418 12.5-16.242 20.227-23.473 7.704-7.231 16.318-13.499 25.863-18.781 9.544-5.283 20.147-8.971 31.808-11.041 7.194-1.311 13.597-1.668 19.212-1.049 5.637.618 10.507 1.952 14.677 3.999 4.169 2.07 7.595 4.745 10.299 8.07 2.704 3.325 4.71 6.82 6.062 10.507a466.755 466.755 0 0 1 6.334-11.615c1.869-3.278 3.386-5.796 4.549-7.553 3.122-5.405 6.366-9.329 9.667-11.75 3.302-2.399 6.381-4.037 9.195-4.893 2.813-.855 5.254-1.19 7.278-.983 2.111.251 3.526.367 4.288.372ZM256.95 429.412c3.289-.178 7.52-1.462 12.694-3.851 5.152-2.389 10.505-5.669 16.059-9.82 5.553-4.15 10.958-8.977 16.236-14.479 5.278-5.502 9.774-11.444 13.489-17.826a512.794 512.794 0 0 1 9.595-22.376 1314.017 1314.017 0 0 1 10.157-21.786c1.208-5.807 1.32-10.379.358-13.673-.962-3.293-2.342-5.826-4.183-7.6-1.841-1.752-3.904-2.874-6.253-3.388-2.327-.492-4.177-.741-5.527-.749-3.482-.215-7.671 1.265-12.545 4.439-4.873 3.175-10.036 7.48-15.509 12.872-5.473 5.414-10.929 11.59-16.411 18.55a224.435 224.435 0 0 0-14.968 21.455c-4.504 7.357-8.333 14.565-11.463 21.625-3.153 7.06-5.081 13.321-5.786 18.739-.705 5.44-.053 9.799 1.975 13.12 2.051 3.321 6.071 4.911 12.082 4.748Z" stroke="currentColor" stroke-width="2" fill="transparent"/><path d="M526.042 207.835c3.093-.179 5.768.467 8.002 1.938 2.214 1.471 3.902 3.375 5.065 5.711 1.141 2.336 1.628 4.909 1.417 7.716-.212 2.808-1.01 5.373-2.372 7.696-8.413 13.346-17.534 28.691-27.34 45.993-9.807 17.323-19.707 35.844-29.701 55.605a465.375 465.375 0 0 0 34.189 3.671c11.733.848 22.708.799 32.904-.104 10.196-.902 19.091-2.944 26.686-6.104 7.595-3.159 12.848-7.943 15.801-14.329 1.762-3.67 3.952-6.097 6.593-7.237 2.62-1.14 4.994-1.279 7.145-.396 2.129.882 3.732 2.503 4.786 4.838 1.054 2.336.996 5.058-.197 8.143-3.552 8.517-8.62 15.436-15.247 20.734-6.627 5.299-14.075 9.439-22.344 12.399-8.269 2.96-17.121 4.915-26.533 5.822a208.169 208.169 0 0 1-27.964.871c-9.231-.334-17.894-1.056-26.054-2.19-8.138-1.111-15.23-2.26-21.234-3.469a728.005 728.005 0 0 0-4.56 9.731 1168.613 1168.613 0 0 1-4.561 9.73c1.898 7.392 3.94 16.136 6.128 26.23 2.166 10.115 3.913 21.187 5.197 33.214 1.285 12.049 1.999 24.769 2.122 38.162.123 13.393-.823 27.084-2.837 41.031-3.028 20.17-6.998 37.285-11.93 51.325-4.933 14.04-10.331 25.574-16.194 34.557-5.863 8.983-11.933 15.94-18.166 20.87-6.233 4.909-12.175 8.47-17.827 10.682-5.652 2.19-10.732 3.425-15.307 3.705-4.552.259-8.101.196-10.625-.21-7.767-1.197-14.544-4.26-20.332-9.126-5.787-4.888-10.413-11.119-13.878-18.716-3.442-7.596-5.638-16.232-6.565-25.948-.905-9.717-.37-19.992 1.628-30.847 2.398-12.595 6.155-26.598 11.291-42.009 5.136-15.411 11.191-31.535 18.164-48.373 6.994-16.86 14.513-33.934 22.556-51.267a1591.329 1591.329 0 0 1 24.446-50.386c-6.753-7.615-12.567-11.61-17.398-12.028-3.091-.213-4.455-1.636-4.049-4.246.406-2.611 1.772-5.478 4.118-8.558 2.347-3.101 5.128-5.938 8.344-8.534 3.215-2.595 5.987-3.886 8.317-3.874.392.002 2.175.404 5.372 1.184 3.197.801 7.308 1.695 12.354 2.68a1760.365 1760.365 0 0 1 16.921-32.07 2582.018 2582.018 0 0 1 14.56-26.573c4.31-7.729 7.939-14.22 10.885-19.452 2.947-5.232 4.904-8.705 5.871-10.442 2.552-4.646 5.774-8.657 9.669-12.032 3.894-3.376 7.938-6.163 12.131-8.383 4.193-2.198 8.122-3.875 11.808-5.031 3.686-1.156 6.609-1.924 8.745-2.304Zm-71.818 299.522c2.043-19.217 2.054-37.16.011-53.873-2.043-16.713-5.27-31.864-9.66-45.476a2052.262 2052.262 0 0 0-21.961 49.964c-6.993 16.467-13.176 32.155-18.592 47.064-5.416 14.908-9.956 28.733-13.618 41.43-3.662 12.696-6.14 23.745-7.454 33.145-1.314 9.4-1.246 16.869.161 22.408 1.428 5.538 4.569 8.604 9.422 9.218 10.663 1.235 19.408-1.244 26.236-7.412 6.828-6.169 12.447-14.457 16.881-24.798 4.433-10.362 8.024-21.884 10.815-34.585a2138.147 2138.147 0 0 0 7.759-37.085Z" stroke="currentColor" stroke-width="2" fill="transparent"/><path d="M723.638 278.508c3.484.019 6.355.753 8.568 2.224 2.213 1.471 3.924 3.136 5.068 4.971 1.144 1.857 1.874 3.799 2.146 5.826.272 2.048.306 3.747.124 5.096-.804 3.676-2.571 8.326-5.324 13.951-2.752 5.625-5.944 11.813-9.574 18.587-3.63 6.774-7.61 13.982-11.92 21.624a1215.843 1215.843 0 0 0-12.361 22.492c-3.916 7.36-7.461 14.527-10.591 21.478-3.152 6.972-5.407 13.166-6.808 18.602-1.179 4.458-1.062 6.941.395 7.428 1.456.487 4.118-.609 8.031-3.31 6.818-4.426 14.036-10.266 21.632-17.498 7.617-7.231 15.172-14.964 22.686-23.176a634.907 634.907 0 0 0 21.672-24.923c6.927-8.411 13.087-16.043 18.46-22.894a2759.653 2759.653 0 0 0 13.333-17.108c3.508-4.532 5.569-7.004 6.159-7.392.787-.584 1.899-.861 3.358-.853a8.494 8.494 0 0 1 4.066 1.046 7.45 7.45 0 0 1 2.903 2.781c.669 1.158.617 2.616-.176 4.376-.595 1.151-2.44 4.211-5.581 9.137-3.141 4.926-7.334 11.065-12.622 18.418s-11.429 15.464-18.468 24.353c-7.038 8.89-14.622 17.973-22.708 27.248a473.793 473.793 0 0 1-25.625 27.08c-8.976 8.792-18.056 16.647-27.218 23.586-1.551.972-3.846 2.462-6.862 4.47-3.016 2.031-6.576 3.95-10.657 5.756-4.082 1.829-8.467 3.242-13.133 4.306-4.665 1.041-9.218 1.256-13.678.643-3.503-.607-6.261-1.972-8.274-4.117-2.036-2.145-3.414-4.961-4.179-8.471-.764-3.489-.938-7.518-.521-12.089.416-4.549 1.227-9.465 2.41-14.685-4.293 4.441-9.565 8.919-15.796 13.458a161.48 161.48 0 0 1-19.424 12.132c-6.727 3.556-13.232 6.526-19.56 8.93-6.328 2.404-11.713 3.681-16.178 3.831-6.991.158-12.996-.855-18.036-3.016-5.04-2.162-9.14-5.037-12.321-8.647-3.181-3.61-5.489-7.652-6.924-12.123-1.434-4.472-2.128-8.94-2.104-13.404.034-6.206 1.053-13.342 3.035-21.389 1.982-8.046 4.901-16.37 8.716-24.994 3.836-8.602 8.629-17.134 14.402-25.551 5.773-8.417 12.501-16.242 20.227-23.472 7.705-7.231 16.318-13.499 25.863-18.782 9.545-5.283 20.148-8.97 31.809-11.041 7.193-1.311 13.597-1.667 19.212-1.049 5.636.619 10.507 1.952 14.676 4 4.17 2.07 7.596 4.745 10.3 8.069 2.703 3.325 4.709 6.82 6.061 10.508a464.918 464.918 0 0 1 6.335-11.616c1.869-3.278 3.385-5.795 4.549-7.553 3.121-5.405 6.366-9.328 9.667-11.749 3.301-2.399 6.38-4.037 9.194-4.893 2.814-.856 5.255-1.191 7.279-.984 2.11.251 3.525.368 4.287.372ZM590.322 431.232c3.289-.178 7.521-1.461 12.695-3.85 5.152-2.389 10.504-5.67 16.058-9.82 5.554-4.151 10.959-8.977 16.237-14.48 5.278-5.502 9.774-11.444 13.489-17.825a512.79 512.79 0 0 1 9.594-22.377 1321.85 1321.85 0 0 1 10.158-21.785c1.207-5.808 1.32-10.38.358-13.673-.962-3.294-2.342-5.827-4.183-7.601-1.842-1.752-3.904-2.874-6.253-3.387-2.327-.492-4.177-.742-5.527-.749-3.483-.215-7.672 1.264-12.545 4.439-4.873 3.174-10.036 7.479-15.509 12.871-5.474 5.414-10.93 11.591-16.411 18.551A224.422 224.422 0 0 0 593.515 373c-4.505 7.357-8.333 14.566-11.464 21.626-3.152 7.06-5.081 13.32-5.785 18.739-.705 5.44-.054 9.798 1.975 13.119 2.05 3.321 6.07 4.911 12.081 4.748Z" stroke="currentColor" stroke-width="2" fill="transparent"/><path d="M798.008 257.661c4.073-.174 7.421.716 10.023 2.668 2.603 1.952 3.892 5.16 3.868 9.624-.012 2.134-.747 5.135-2.227 9.025a642.402 642.402 0 0 1-4.571 11.625 1132.124 1132.124 0 0 0-6.785 14.226c1.338 2.141 4.73 3.183 10.174 3.104 5.423-.058 11.654-.655 18.65-1.793 6.996-1.138 14.188-2.339 21.556-3.671 7.389-1.31 13.687-2.146 18.936-2.51 4.073-.173 7.183.671 9.306 2.533a14.074 14.074 0 0 1 4.34 6.862c.769 2.726.884 5.579.389 8.581-.496 3.003-1.446 5.48-2.806 7.41-.791 1.15-2.747 4.493-5.869 10.007-3.144 5.514-6.708 12.201-10.736 20.04-4.028 7.839-8.058 16.222-12.07 25.128-4.034 8.906-7.236 17.185-9.608 24.837-2.372 7.652-3.518 14.201-3.461 19.645.058 5.444 2.24 8.461 6.505 9.072 2.328.405 6.322-1.315 11.961-5.182 5.661-3.846 12.222-9.058 19.749-15.615 7.505-6.557 15.451-14.178 23.86-22.864a707.167 707.167 0 0 0 24.469-26.65c7.91-9.081 15.145-18.057 21.683-26.971 6.559-8.892 11.699-16.921 15.418-24.086.99-1.933 2.5-3.231 4.529-3.917 2.05-.664 4.076-.696 6.119-.119 2.044.577 3.67 1.871 4.923 3.816 1.252 1.945 1.586 4.668.979 8.149-.202.979-1.807 3.91-4.861 8.858-3.032 4.927-7.094 11.067-12.186 18.421-5.092 7.354-11.147 15.509-18.186 24.507-7.039 8.998-14.601 18.016-22.707 27.095a380.426 380.426 0 0 1-25.62 26.056c-8.973 8.291-18.049 15.384-27.205 21.257-9.156 5.873-18.26 10.178-27.29 12.96-9.052 2.76-17.742 3.148-26.072 1.164-7.959-1.981-13.994-5.215-18.151-9.702-4.156-4.487-6.784-9.836-7.926-16.048-1.12-6.212-1.083-13.006.112-20.382 1.194-7.375 3.042-14.725 5.499-22.093a196.662 196.662 0 0 1 8.698-21.641c3.326-7.059 6.584-13.4 9.706-19.023 3.123-5.601 5.827-10.202 8.089-13.783 2.241-3.581 3.668-5.75 4.26-6.531 2.149-2.71 2.4-4.734.752-6.115-1.647-1.359-3.824-1.567-6.551-.624-2.924 1.139-6.958 2.096-12.101 2.852-5.143.756-10.302.423-15.433-.955-5.132-1.378-9.645-4.321-13.497-8.806-3.851-4.485-5.86-11.377-6.006-20.698-.18-2.918.276-6.596 1.367-11.054 1.092-4.458 2.814-8.76 5.166-12.928 2.353-4.168 5.226-7.789 8.639-10.863 3.501-3.094 7.539-4.727 12.2-4.898Z" stroke="currentColor" stroke-width="2" fill="transparent"/><path d="M985.554 302.346c3.505.215 6.397 1.015 8.719 2.377 2.323 1.363 4.056 3.027 5.221 4.972 1.146 1.944 1.876 3.93 2.146 5.978.27 2.048.33 3.747.12 5.096-1.18 5.242-4.135 12.259-8.843 21.052-4.708 8.815-9.899 18.194-15.593 28.158a688.516 688.516 0 0 0-16.323 30.331c-5.195 10.272-8.882 19.463-11.06 27.595-1.2 4.457-.582 6.791 1.856 7 2.416.209 5.58-.95 9.491-3.432 6.622-4.428 14.32-10.353 23.092-17.774 8.773-7.421 17.74-15.429 26.92-24.024 9.17-8.573 18.18-17.234 27.07-25.917s16.84-16.653 23.87-23.888c7.03-7.235 12.83-13.213 17.43-17.957 4.58-4.722 7.18-7.277 7.75-7.666.79-.584 1.9-.861 3.36-.853 1.46.008 2.81.364 4.06 1.046a7.455 7.455 0 0 1 2.91 2.781c.67 1.18.61 2.617-.18 4.376-.59 1.151-3.03 4.317-7.32 9.433-4.3 5.115-9.86 11.508-16.7 19.136s-14.74 16.121-23.72 25.5c-8.98 9.358-18.35 18.78-28.12 28.242a912.996 912.996 0 0 1-29.849 27.644c-10.153 8.982-19.8 16.921-28.961 23.861-1.356.972-3.607 2.462-6.732 4.47-3.125 2.03-6.663 3.949-10.658 5.756-3.995 1.829-8.314 3.308-12.98 4.437-4.666 1.129-9.328 1.408-13.984.795-7.181-1.02-11.58-4.963-13.175-11.875-1.617-6.89-1.419-15.337.574-25.321 1.992-9.985 5.296-20.876 9.934-32.697a539.97 539.97 0 0 1 14.601-33.977c5.111-10.838 9.954-20.523 14.573-29.034 4.598-8.511 7.985-14.611 10.139-18.28 3.142-5.23 6.364-9.089 9.666-11.597 3.302-2.508 6.381-4.189 9.195-5.045 2.814-.856 5.255-1.191 7.279-.984 2.045.186 3.46.28 4.222.285Zm4.056-48.886c1.761-3.496 3.868-6.49 6.299-9.002 2.431-2.513 5.011-4.437 7.741-5.772 2.73-1.335 5.54-2.104 8.46-2.284 2.92-.18 5.62.314 8.14 1.503 2.51 1.364 4.59 3.27 6.24 5.718 1.64 2.448 2.73 5.154 3.31 8.162.57 3.008.59 6.275.09 9.756-.49 3.503-1.65 6.981-3.41 10.455-1.76 3.497-3.86 6.49-6.29 9.003-2.46 2.512-5.04 4.436-7.74 5.772-2.73 1.335-5.55 2.103-8.47 2.283-2.92.18-5.634-.313-8.132-1.503-5.038-2.553-8.171-7.122-9.397-13.748-1.227-6.583-.167-13.371 3.159-20.343Z" stroke="currentColor" stroke-width="2" fill="transparent"/></g></symbol><symbol id="scroll" viewBox="0 0 27 29"><g fill="currentColor"><circle cx="13.5" cy="5.5" r="4" stroke="currentColor" stroke-width="3" fill="transparent"/><path d="m2 17 11.5 9L25 17" stroke="currentColor" stroke-width="4" fill="transparent"/></g></symbol><symbol id="search" viewBox="0 0 16 16"><g fill="currentColor"><path d="M5.943 0a5.943 5.943 0 0 1 5.943 5.943c0 1.472-.54 2.825-1.427 3.867l.247.247h.723L16 14.63 14.629 16l-4.572-4.571v-.723l-.247-.247a5.957 5.957 0 0 1-3.867 1.427A5.943 5.943 0 1 1 5.943 0Zm0 1.829a4.097 4.097 0 0 0-4.114 4.114 4.097 4.097 0 0 0 4.114 4.114 4.097 4.097 0 0 0 4.114-4.114 4.097 4.097 0 0 0-4.114-4.114Z" fill="currentColor"/></g></symbol><symbol id="tw" viewBox="0 0 14 12"><g fill="currentColor"><path fill-rule="evenodd" clip-rule="evenodd" d="M4.433 11.356A8.096 8.096 0 0 0 12.6 3.19V2.8A6.324 6.324 0 0 0 14 1.322a6.458 6.458 0 0 1-1.633.467A3.026 3.026 0 0 0 13.611.233a7.133 7.133 0 0 1-1.789.7A2.778 2.778 0 0 0 9.722 0a2.922 2.922 0 0 0-2.878 2.878c-.018.21.009.422.078.622A8.041 8.041 0 0 1 1.011.467c-.256.45-.39.96-.389 1.478a3.09 3.09 0 0 0 1.244 2.411 2.622 2.622 0 0 1-1.322-.389 2.843 2.843 0 0 0 2.333 2.8 2.4 2.4 0 0 1-.778.078 1.324 1.324 0 0 1-.544-.078A2.947 2.947 0 0 0 4.277 8.79 5.872 5.872 0 0 1 .7 10.033a2.154 2.154 0 0 1-.7-.078 7.34 7.34 0 0 0 4.433 1.4" fill="currentColor"/></g></symbol><symbol id="user" viewBox="0 0 16 16"><g fill="currentColor"><path d="M8 0a4 4 0 1 1 0 8 4 4 0 0 1 0-8Zm0 10c4.42 0 8 1.79 8 4v2H0v-2c0-2.21 3.58-4 8-4Z" fill="currentColor"/></g></symbol></svg>